<svg id="Ebene_1" data-name="Ebene 1" xmlns="http://www.w3.org/2000/svg" viewBox="0 0 600 600"><title>Zeichenfläche 11</title><path d="M399.8737,100.6083c.1627,1.2817.122,1.2817-1.0985.6408-.7731-.4-.8137-.36-.4069.16.4475.5207.1627.6809-1.9122,1.2817a32.6071,32.6071,0,0,0-4.394,1.5621l-1.9529.9212-.6916-.801-.7324-.8412.4882.8412c.4476.761.2035,1.1214-2.4,3.6848-1.6274,1.6021-2.97,2.6435-3.0921,2.3631-.0813-.28-.2034-.2-.2034.16a19.6481,19.6481,0,0,1-1.424,3.4446,34.5948,34.5948,0,0,0-1.9122,4.566,5.2663,5.2663,0,0,1-.9764,2.0427q-.3662.3,0,.3605c.2441,0-.0407.2-.61.36l-1.0171.3205.9764.04c.9765.04.9765.04.2441.8411-.5289.5608-.57.761-.1627.6008.4882-.16.5289.4006.4475,3.4045-.122,3.3645-.2034,3.6048-.8137,3.1241-.61-.44-.61-.4,0,.3205.57.6408.61.9212.2441,1.2816s-.3661.4807.0814.4807c.3662,0,.3255.24-.2441.8811-.61.761-.651.8011-.0407.3605.651-.5207.6917-.24.6917,4.1255,0,3.6448-.1221,4.6461-.4883,4.4058-.4068-.24-.4068-.16,0,.32.4883.5607.4069.6809-.61.8411l-1.1392.16,1.1392.08c1.2205.04,1.3833.4005.61,1.2016-.4068.4406-.4068.5207,0,.28.3662-.24.4883.5607.4883,3.3244,0,2.4432-.1628,3.6448-.4476,3.6448-.3255,0-.3255.16,0,.5607.4069.4806.2848.6008-.6509.761l-1.1392.16,1.1392.08c1.2205.04,1.3833.4.61,1.2016-.4068.4406-.4068.5207,0,.28.3662-.24.4883.7209.4883,4.1655s-.1221,4.4058-.4883,4.1655c-.4068-.24-.4068-.16,0,.28.7324.761.61,1.0815-.4068,1.2817-.9358.16-.9358.16.0407.24.8544.04.895.12.4068.721-.4068.4406-.4068.5607-.0407.3605s.4883.6008.4883,3.5647-.1221,3.805-.4883,3.5647c-.4068-.24-.4068-.16,0,.28.6917.721.61,1.0815-.2034,1.2817-.651.16-.651.2.0407.24.651.04.6916.12.2034.721-.4068.4406-.4068.5607-.0407.3605.3662-.24.4883.761.4883,4.3657s-.1221,4.6061-.4883,4.3658c-.4068-.24-.4068-.16,0,.32.4476.5607.4069.6809-.4068.8411l-.9358.16.9358.08c1.0171.04,1.1392.4406.4068,1.2016-.4068.4406-.4068.5207,0,.28.3662-.24.4883.6008.4883,3.5647s-.1221,3.7649-.4883,3.5647c-.4068-.24-.3661-.12,0,.32.4883.6008.3662.6809-.8137.8411l-1.3426.16,1.3426.04c1.3833.08,1.5868.4.8137,1.2416-.4068.4406-.4068.5207,0,.28.3662-.24.4883.7209.4883,4.1655s-.1221,4.4058-.4883,4.1655c-.4068-.24-.4068-.16,0,.28.7731.8011.61,1.0815-.8137,1.2817l-1.3426.16,1.3833.04c1.1392.08,1.3019.16.8544.6809-.3662.4-.3662.6008-.0407.6008.2848,0,.4476,1.2016.4476,3.6448,0,2.7636-.1221,3.5647-.4883,3.3244-.4068-.24-.4068-.16,0,.28.7324.761.61,1.0815-.4068,1.2817-.9358.16-.9358.16.0407.24.8544.04.895.12.4068.7209-.4068.4406-.4068.5607-.0407.3605.3662-.24.4883.761.4883,4.4058,0,4.3657-.0407,4.6461-.6917,4.1254-.61-.4406-.57-.4.0407.3605.57.6408.61.8812.2441.8812-.4475,0-.4475.12-.0814.4806s.3255.6408-.2441,1.2817c-.6509.801-.6509.801.0407.28.651-.5207.6917-.28.6917,3.3243,0,3.004-.1221,3.8051-.4883,3.6048-.4068-.24-.4068-.16,0,.32.4476.5608.4069.6809-.4068.8411l-.9358.16.9358.08c1.0171.04,1.1392.4406.4068,1.2016-.4068.4406-.4068.5207,0,.28.3662-.24.4883.7209.4883,4.1254,0,3.0441-.1628,4.4459-.4476,4.4459-.3255,0-.3255.2.0407.6008.4475.5207.3255.6008-.651.6408l-1.18.04,1.0578.28c1.0171.24,1.0171.32,1.1392,4.4058.0813,3.3644,0,4.0854-.4476,3.845-.4068-.24-.4475-.2,0,.24.7731.801.61,1.0814-.8137,1.2816l-1.3426.16,1.3833.04c1.1392.08,1.3019.16.8544.6809-.3662.4-.3662.6008-.0407.6008.2848,0,.4476,1.4419.4476,4.4459,0,4.2055-.0407,4.4458-.6917,3.9251-.57-.44-.5289-.32.0814.3605.6509.8011.6916,1.0013.2034,1.2817-.5289.32-.5289.4005-.0407.4005.4476,0,.3662.2-.2034.8812-.61.761-.651.8011-.0407.3605.651-.5207.6917-.28.6917,3.3644s-.0407,3.8851-.6917,3.3644c-.651-.4806-.651-.44,0,.3205.7323.8411.7323.8411,0,1.0413-.651.16-.651.2,0,.24.3662,0,.6917.16.6917.32a3.773,3.773,0,0,1-.6917,1.0814c-.6916.8011-.6916.8011,0,.28.651-.5207.6917-.28.6917,3.9252,0,3.0039-.1628,4.4458-.4476,4.4458-.3255,0-.3255.16,0,.5608.4069.4806.2848.6007-.6509.761l-1.1392.16,1.1392.08c1.2205.04,1.3833.4005.61,1.2016-.4475.44-.4068.4806,0,.24.4476-.24.5289.4806.4476,3.845-.1221,4.0854-.1221,4.1655-1.1392,4.4059l-1.0578.28,1.18.04c.9765.04,1.0985.12.651.6408-.3662.4006-.3662.6008-.0407.6008.2848,0,.4476,1.4019.4476,4.4459,0,3.4045-.1221,4.3657-.4883,4.1254-.4068-.24-.4068-.16,0,.28.7324.761.61,1.0814-.4068,1.2817-.9358.16-.9358.16.0407.24.8544.04.895.12.4068.7209-.4068.4406-.4068.5608-.0407.3605s.4883.6008.4883,3.6048c0,3.6047-.0407,3.845-.6917,3.3244-.57-.4406-.5289-.32.0814.36.6509.8011.6916,1.0014.2034,1.2817-.5289.32-.5289.4006-.0407.4006.4476,0,.3662.2-.2034.8811-.61.761-.651.8011-.0407.3605.651-.5207.6917-.24.6917,4.1254,0,3.6448-.1221,4.6462-.4883,4.4058-.4068-.24-.4068-.16,0,.3205.4883.5607.4069.6809-.61.8411l-1.1392.16,1.1392.08c1.2205.04,1.3833.4005.61,1.2016-.4068.4406-.4068.5207,0,.28.3662-.24.4883.5608.4883,3.3244,0,2.4432-.1628,3.6448-.4476,3.6448-.3255,0-.3255.16,0,.5608.4069.4806.2848.6008-.6509.761l-1.1392.16,1.1392.08c1.2205.04,1.3833.4.61,1.2016-.4068.4406-.4068.5207,0,.28.3662-.24.4883.721.4883,4.1655s-.1221,4.4058-.4883,4.1655c-.4068-.24-.4068-.16,0,.28.7324.761.61,1.0814-.4068,1.2817-.9358.16-.9358.16.0407.24.8544.04.895.12.4068.721-.4068.44-.4068.5607-.0407.36s.4883.6008.4883,3.5647-.1221,3.8051-.4883,3.5647c-.4068-.24-.4068-.16,0,.28.7324.761.61,1.0814-.4068,1.2817-.9358.16-.9358.16.0407.24.8544.04.895.12.4068.721-.4068.44-.4068.5607-.0407.36.3662-.24.4883.761.4883,4.3658s-.1221,4.6061-.4883,4.3658c-.4068-.24-.4068-.16,0,.32.4476.5607.4069.6809-.4068.8411l-.9358.16.9358.08c1.0171.04,1.1392.4406.4068,1.2016-.4068.4406-.4068.5207,0,.28.3662-.24.4883.6007.4883,3.5647s-.1221,3.7649-.529,3.5647c-.3661-.24-.3661-.16.0407.32.4883.5607.4069.6809-.61.8411l-1.1392.16,1.1392.08c1.2205.04,1.3833.4.61,1.2016-.4068.4406-.4068.5207,0,.28.3662-.24.4883.7209.4883,4.1655s-.1221,4.4058-.4883,4.1654c-.4068-.24-.4068-.16,0,.28.7731.8011.61,1.0814-.8137,1.2817l-1.3426.16,1.3833.04c1.1392.08,1.3019.16.8544.6809-.3662.4005-.3662.6008-.0407.6008.2848,0,.4476,1.2015.4476,3.6448,0,2.7636-.1221,3.5647-.4883,3.3243-.4068-.24-.4068-.16,0,.28.7324.761.61,1.0814-.4068,1.2817-.9358.16-.9358.16.0407.24.8544.04.895.12.4068.721-.4068.4406-.4068.5607-.0814.3605.4069-.24.529.761.529,4.4058,0,4.3657-.0407,4.6461-.6917,4.1254-.61-.4406-.57-.4005.0407.3605.57.6408.61.8811.2441.8811-.4475,0-.4475.12-.0814.4807s.3255.6408-.2441,1.2817c-.6509.801-.6509.801.0407.28.651-.5207.6917-.28.6917,3.3244,0,3.004-.1221,3.805-.4883,3.6048-.4068-.24-.4068-.16,0,.32.4476.5607.4069.6809-.4068.8411l-.9358.16.9358.08q1.5257.06.3661,1.2016c-.3661.4406-.3661.5207.0407.28.3662-.24.4883.7209.4883,4.1254,0,3.044-.1628,4.4459-.4476,4.4459-.3255,0-.3255.2.0407.6008.4475.5207.3255.6008-.651.6408l-1.18.04,1.0578.28c1.0171.24,1.0171.3205,1.1392,4.4058.0813,3.3645,0,4.0854-.4476,3.8451-.4068-.24-.4475-.2,0,.24.7731.8011.61,1.0815-.8137,1.2817l-1.3426.16,1.3833.04c1.1392.08,1.3019.16.8544.6809-.3662.4-.3662.6008-.0407.6008.2848,0,.4476,1.4018.4476,4.4458,0,3.4045-.1221,4.3658-.4883,4.1255-.4068-.24-.4068-.16,0,.28.6917.721.61,1.0815-.2034,1.2817-.651.16-.651.2.0407.24.773.04.773.04,0,.9212-.61.761-.651.801-.0407.36.651-.5206.6917-.28.6917,3.3645s-.0407,3.8851-.6917,3.3644c-.61-.4406-.57-.4005.0407.3605.773.8812.773.8812,0,.8812-.7323.04-.7323.04-.0407.44.7323.4006.7323.4807,0,1.2817-.651.761-.651.8011-.0407.32.6917-.5206.7324-.28.7324,3.9252,0,3.004-.1628,4.4459-.4476,4.4459-.3255,0-.3255.16,0,.5607.4069.4807.2848.6008-.6509.761l-1.1392.16,1.1392.08c1.2205.04,1.3833.4006.57,1.2016-.3661.4406-.3661.5207,0,.28.4069-.2.529.24.529,1.7223,0,2.0827-.7731,3.3244-.8544,1.3618-.0814-.9212-.0814-.9613-.2441-.24-.2035,1.0814-.7324,1.1615-1.3427.2-.4475-.6408-.4475-.6408-.2441.04.2035.5607.0407.6408-.895.44a24.7831,24.7831,0,0,1-6.9165-3.4845c-.6917-.6008-.7731-.9213-.4069-1.1616.3662-.2.2034-.32-.4475-.32h-.9765l.9765-1.0414.9764-1.0814-1.18.761-1.18.721-1.2613-1.4419c-1.7494-2.0027-3.9871-5.9279-3.3768-5.9279.2848,0,.2441-.16-.1221-.4005-.5289-.3605-.4882-.5207.2034-1.0814s.7324-.6008.0814-.3605c-1.1392.3605-1.7088-.4806-2.848-4.0053-1.6274-5.1267-1.6681-5.5273-.8137-5.2068.651.2.651.16-.0406-.3605-.8951-.6809-.8544-.8011.57-1.4019.9358-.36.8951-.4-.2848-.16-1.3833.24-1.7087-.12-.8543-1.0013.4475-.4.4068-.4406-.1221-.24s-.7323-.3605-1.2612-3.4045c-.5289-3.2443-.5289-3.6048.0406-3.4045.4883.2.4476.08-.122-.5607-.6917-.721-.6917-.761.0407-.9613.6509-.16.6509-.2.0407-.24-.8544-.04-.9358-.4806-.2442-1.2016.4476-.4005.4069-.4406-.122-.24-.57.2-.6917-.3605-1.0171-4.2056s-.2848-4.4058.2441-4.2055c.4882.2.5289.16.122-.24-.773-.761-.6509-1.0815.4069-1.2817.7323-.16.6916-.2-.2848-.24-.9358-.04-1.0578-.16-.6917-.6008.2848-.32.3255-.6409.1221-.721-.2441-.04-.5289-1.8424-.6917-3.9252-.2848-3.6448-.2848-3.7649.4476-3.2042s.773.5608.0407-.28-.7324-.8412.2034-1.0414c.9358-.16.9358-.16.0407-.24-1.0578-.04-1.18-.4406-.4069-1.2016.3662-.4406.3662-.5207,0-.28-.4068.24-.5289-.4806-.5289-2.8838a28.656,28.656,0,0,0-.2848-4.4859c-.2034-1.2016-.1627-1.3218.5289-1.0414.61.24.6917.2.2848-.2-.773-.761-.6509-1.0815.4069-1.2817l.8951-.16-.8951-.08c-1.0578-.04-1.18-.44-.4476-1.2015.4476-.4006.4069-.4406-.2034-.24-.61.28-.6916-.04-.6916-3.4445,0-3.8851.1627-4.4859,1.2205-4.8864.4882-.16.4476-.24-.0813-.24-.8544-.04-.9358-.4806-.2035-1.2015.4069-.4006.3662-.4406-.2441-.24-.651.28-.6916-.12-.6916-4.4058,0-4.4058.0406-4.6861.7323-4.1655.57.4406.5289.4006-.0814-.36l-.773-.8812,1.18-.04c.9764-.04,1.0171-.12.2848-.24-1.0578-.2-1.18-.5207-.4476-1.2817.4476-.4.4069-.44-.2034-.24-.61.28-.6916-.04-.6916-3.4445,0-4.0454.1627-4.566,1.4239-4.8865.7324-.16.7324-.2-.0813-.24-1.0578-.04-1.18-.4406-.4476-1.2016.4476-.4.4069-.44-.2034-.24-.651.28-.6916-.12-.6916-4.4058,0-4.4058.0406-4.6862.7323-4.1655.57.4406.5289.4005-.0814-.3605l-.773-.8811,1.18-.04c.9764-.04,1.0171-.12.2848-.24-1.0578-.2-1.18-.5207-.4069-1.2817.4069-.4005.3662-.4406-.2441-.24-.61.28-.6916-.04-.6916-3.4445,0-4.0454.1627-4.5661,1.4239-4.8865.7324-.16.7324-.2-.0813-.24-1.0578-.04-1.18-.4406-.4476-1.2016.4476-.4005.4069-.4406-.2034-.24-.651.28-.6916-.12-.6916-4.4058,0-4.4058.0406-4.6862.6916-4.1655.61.4406.57.4-.0407-.3605l-.773-.8811,1.18-.04c.9764-.04,1.0171-.12.2848-.24-1.0578-.2-1.18-.5207-.4476-1.2817.4476-.4005.4069-.4406-.1627-.24-.651.28-.7323-.04-.7323-3.4446a17.5067,17.5067,0,0,1,.3254-4.2055,2.1956,2.1956,0,0,1,1.302-.6809c1.0171-.16,1.0171-.16-.0814-.24-1.2206-.04-1.424-.4005-.651-1.2016.4476-.4.4069-.4406-.1627-.24-.61.24-.7323.04-.7323-1.0814a18.6726,18.6726,0,0,0-.7731-4.0454c-.4882-1.8024-.61-2.6835-.2848-2.6835.2442,0,.2035-.16-.122-.3605a.6116.6116,0,0,1-.2441-.8411c.2034-.32.122-.4406-.2441-.32-.3255.12-.9765-.4406-1.5868-1.3218a30.4135,30.4135,0,0,0-2.8072-3.3644c-1.75-1.8424-1.75-1.8424-1.0172-2.9239l.6917-1.0814-1.0985.9613c-.57.5607-1.0578.761-1.0578.4806s-.1628-.4-.3255-.28a5.2824,5.2824,0,0,1-2.36-.801,21.9536,21.9536,0,0,0-3.7023-1.4419c-.9765-.24-1.75-.5608-1.75-.761s-.2441-.24-.57-.12-.6509-.08-.773-.5207c-.1627-.6809-.2034-.6809-.2441.04-.0407.6408-.1221.6809-.7323.2-.4476-.4006-.57-.4006-.3662-.08.2034.4006-.2034.5207-1.6681.5207a14.1639,14.1639,0,0,0-3.3769.4006c-.9357.28-1.4646.24-1.6681-.04-.1627-.28-.3661-.16-.5289.32-.2848.6409-.3661.6409-.895-.28-.4476-.761-.57-.8011-.3662-.2.1627.6408-.2441,1.0814-2.1156,2.1629a31.0892,31.0892,0,0,0-3.8245,2.7235q-1.5257,1.382-1.7087.8412c-.1221-.32-.2441-.24-.2441.16-.0407.8411-.4883.9212-1.2613.24-.3255-.28-.2441-.12.1628.3605.7323.8411.7323.9212.0813.9212-.3661,0-.61.12-.4882.32a13.9946,13.9946,0,0,1-1.3833,3.4445c-.9358,1.9626-1.6274,2.9639-1.79,2.6035-.1221-.3205-.1221-.16,0,.32.122.6008.0406.9212-.3255.9212-.4069,0-.4069.08.0407.3605s.4068.4406-.2035.801c-.57.32-.61.4006-.1627.4406.5289,0,.57.6809.4882,4.2456-.122,3.7249-.2034,4.2056-.8137,3.9652-.57-.2-.5289-.12.0814.5608.6916.761.6916.801-.4476.9613l-1.1391.16,1.18.08,1.18.04-.773.8812c-.61.761-.651.801-.0814.3605.6917-.5207.7323-.28.7323,3.3644,0,3.4846-.0813,3.8451-.6916,3.6448-.61-.24-.61-.2.0407.5207.6916.761.6916.801-.651.9613l-1.3426.16,1.3833.04c1.3833.08,1.3833.08.651.8812-.6917.7209-.6917.801-.0814.5607s.6916.2.6916,4.2456c0,4.1255-.0406,4.4859-.6916,4.2056-.61-.2-.651-.16-.2441.24.773.761.6509,1.0814-.3662,1.2817-.773.12-.7323.2.2441.24l1.18.04-.773.8812c-.61.761-.651.8011-.0814.3605.6917-.5207.7323-.28.7323,3.3644,0,3.5247-.0813,3.8851-.6916,3.6048-.61-.2-.651-.16-.2034.24.7323.761.61,1.0814-.651,1.2817-.9764.16-.9358.16.2848.24l1.3833.04-.773.8812c-.61.761-.651.8011-.0407.3605.651-.5207.6916-.24.6916,4.1655,0,4.2856-.0406,4.6862-.6916,4.4058-.61-.2-.651-.16-.2034.24.7323.761.61,1.0814-.4069,1.2817-.773.12-.7323.2.2441.24l1.18.04-.773.8811c-.61.761-.651.8011-.0407.3605.651-.5207.6916-.28.6916,3.3644,0,3.5247-.0813,3.8852-.6916,3.6048-.61-.2-.651-.16-.2441.24.773.761.6509,1.0814-.57,1.2817-1.0171.16-.9765.16.2441.24l1.3833.04-.773.8811c-.61.761-.651.8011-.0407.3605.651-.5207.6916-.24.6916,4.1655,0,4.2856-.0406,4.6862-.6916,4.4058-.61-.2-.651-.16-.2441.24.773.761.6509,1.0815-.3662,1.2817-.773.12-.7323.2.2441.24l1.18.04-.773.8811c-.61.761-.651.8011-.0407.3605.651-.5207.6916-.28.6916,3.3645,0,3.5246-.0813,3.8851-.6916,3.6047-.61-.2-.651-.16-.2034.24.7323.761.61,1.0815-.61,1.2817-1.0171.16-.9765.16.2441.24l1.3833.04-.773.8812c-.61.761-.651.801-.0407.36.651-.5207.6916-.24.6916,4.1255,0,2.7236-.1627,4.6461-.4068,4.6461-.2034,0-.2848.24-.1628.5607.1628.3605-.122.6409-.7323.761-.8137.16-.773.16.2441.24l1.18.04-.773.8812c-.61.761-.651.801-.0407.36.651-.5206.6916-.28.6916,3.3645,0,3.5246-.0813,3.8851-.7323,3.6047-.57-.2-.61-.16-.2034.24.8137.8011.61,1.1616-.57,1.2016-1.1392.08-1.1392.08-.1221.24a2.1955,2.1955,0,0,1,1.302.6808c.4882.6809.4068,9.4525-.0814,9.4525-.2034,0-.2848.24-.1628.5608s-.0813.6408-.5289.761c-.57.16-.4882.2.2441.24.9765.04.9765.04.2035.9212-.61.761-.651.801-.0814.3605.6917-.4807.7323-.4006.7323,1.4419a31.9286,31.9286,0,0,0,.2848,3.9652c.2441,1.8825.2441,1.9225-.5289,1.3618s-.773-.5608,0,.32c.57.6809.651.8812.2035.8812-.4883,0-.4883.08,0,.36a.6782.6782,0,0,1,.2848.8011c-.1628.24-.1221.4406.0406.4406.2035,0,.6917,1.562,1.0579,3.4846.3661,1.9626.8137,3.9652.9764,4.4859.2034.761.1221.8812-.3255.6408s-.4882-.2-.0407.24c.4069.44.3255.6408-.4068,1.0413-.8951.5207-.8951.5207.2441.28,1.0578-.24,1.1392-.2.8951.4806-.1628.4006-.1628.6008,0,.4406s.8137,1.2016,1.4646,3.004c1.302,3.805,1.3426,4.0854.651,3.7249-.2848-.16-.2034,0,.2034.32.651.5608.651.6008-.2034,1.2416l-.9358.6809.9358-.4806c.5289-.24,1.0171-.3605,1.0578-.28.0814.08,1.1392,2.0427,2.4,4.4059,1.5054,2.8036,2.1157,4.3257,1.79,4.4859-.2848.08-.1628.2.2034.2a1.3584,1.3584,0,0,1,.9765,1.0414c.1627.5607.3661.9613.4475.8411.1221-.12,1.18,1.0814,2.4,2.6836,1.5461,2.0026,2.0343,2.9238,1.6681,3.1641-.3255.2-.122.32.4882.32.9765,0,.9765,0,.2035.8812-.4069.5207-.4883.6809-.1628.4005.8544-.7209,1.2206-.6008,1.2613.4006,0,.761.0813.801.2848.24.2441-.5207.9764,0,3.8651,2.7636,3.092,2.9239,3.4989,3.4846,3.0514,4.0454-.4069.5607-.4069.6008.0813.16.773-.6809,1.2206-.6008,1.2206.2,0,.4807.122.5608.3255.24s1.1392.08,3.1327,1.3217c1.5868,1.0013,2.8073,2.0026,2.7259,2.2029-.0406.2.2035.3605.57.3605.4476,0,.57.24.3662.8811-.2848.9213-.2848.9213.4069.12.4475-.5607.7323-.6408.8543-.28.1221.24.3662.4006.57.28a13.2861,13.2861,0,0,1,3.499,1.1615c1.79.721,3.58,1.4419,4.0278,1.6021.651.24.6916.3605.2034.6809-.4475.3205-.4068.3605.3255.16.6917-.2.8951-.08.8951.4806,0,.4806.122.5607.3255.24.3661-.5607,1.8308-.4406,5.6959.4406,1.6274.4,2.848.8811,2.7259,1.0814-.1627.2.0407.24.3662.12s.6509.08.773.5207c.1627.6408.2034.6408.2441,0,0-.3605.1627-.6809.2848-.6809.1627,0,.5289.32.8137.6809.5289.6809.57.6809.3255-.04-.2441-.6008-.1221-.6809.4882-.5207a31.3253,31.3253,0,0,0,4.0278.4806c4.8416.3605,5.0857.4406,5.0857,1.6823,0,1.0413.0407,1.0413.61.28.5289-.6809.57-.4.61,2.9239,0,2.4833-.1628,3.7249-.4476,3.7249-.3255,0-.3255.16,0,.5607.4069.4807.2848.6008-.6509.761l-1.1392.16,1.1392.08c1.2205.04,1.3833.4.61,1.2015-.4068.4406-.4068.5207,0,.28.3662-.24.4883.721.4883,4.1655s-.1221,4.4058-.4883,4.1655c-.4068-.24-.4068-.16,0,.28.7324.761.61,1.0814-.4068,1.2817-.9358.16-.9358.16.0407.24.8544.04.895.12.4068.7209-.4068.4406-.4068.5608-.0814.3605.4069-.2.529.6008.529,3.5647s-.1221,3.805-.4883,3.5647c-.4068-.24-.4068-.16,0,.28.7324.761.61,1.0814-.4475,1.2817-.8951.16-.8951.16.0814.24.8544.04.895.12.4068.7209-.4068.4406-.4068.5608-.0407.3605.3662-.24.4883.761.4883,4.3658s-.1221,4.606-.4883,4.3657c-.4068-.24-.4068-.16,0,.32.4476.5608.4069.6809-.4068.8412l-.9358.16.9358.08q1.5257.06.3661,1.2016c-.3661.4405-.3661.5206,0,.28.4069-.24.529.6008.529,3.5647s-.1221,3.765-.4883,3.5647c-.4068-.24-.4068-.16,0,.32.4883.5607.4069.6808-.61.8411l-1.1392.16,1.1392.08c1.2205.04,1.3833.4.57,1.2016-.3661.4405-.3661.5206,0,.28.4069-.24.529.721.529,4.1655s-.1221,4.4058-.4883,4.1655c-.4068-.24-.4068-.16,0,.28.7324.801.61,1.0814-.61,1.2817l-1.1392.16,1.18.08c.9765.04,1.0985.12.651.6408-.3662.4006-.3662.6008-.0407.6008.2848,0,.4476,1.2016.4476,3.6448,0,2.7637-.1221,3.5647-.4883,3.3244-.4068-.24-.4068-.16,0,.28.7324.761.61,1.0814-.4068,1.2817-.9358.16-.9358.16.0407.24.8544.04.895.12.4068.7209-.4068.4406-.4068.5608-.0814.3605.4069-.2.529.4006.529,2.5234V610h52.077v-2.8437c0-2.1228.1221-2.7236.529-2.5234.3661.24.3661.16-.0407-.32-.4476-.5607-.4069-.6809.4068-.8411l.9358-.16-.8951-.08c-1.0578-.04-1.18-.4406-.4068-1.2016.4068-.4406.4068-.5207,0-.28s-.529-.5607-.529-3.3244c0-2.4432.1628-3.6448.4476-3.6448.3255,0,.3255-.16,0-.5607-.4069-.4806-.2848-.6008.6509-.761l1.1392-.16-1.0985-.08c-1.2612-.04-1.424-.4006-.61-1.2016.4068-.4406.4068-.5207-.0407-.28-.3662.24-.4883-.7209-.4883-4.1655s.1221-4.4058.529-4.1655.4068.16,0-.28c-.7731-.8011-.651-1.0815.61-1.2817l1.0985-.16-1.18-.08c-1.0172-.04-1.0985-.12-.61-.721.4068-.4406.4068-.5607.0814-.3605-.4069.2-.529-.6008-.529-3.5647s.1221-3.805.529-3.5647.4068.16,0-.28c-.7731-.761-.651-1.0815.4068-1.2817.8951-.16.8951-.16-.0814-.24-.8544-.04-.895-.12-.4068-.7209.4068-.4406.4068-.5607.0814-.3605-.4069.24-.529-.761-.529-4.3657s.1221-4.6061.529-4.3658c.3661.24.3661.16-.0407-.32-.4476-.5608-.4069-.6809.4068-.8411l.9358-.16-.8951-.08c-1.0578-.04-1.18-.4406-.4475-1.2016.4475-.4406.4475-.5207,0-.28-.3662.24-.4883-.6008-.4883-3.5647s.1221-3.765.529-3.5647c.3661.24.3661.16-.0407-.32-.4476-.5608-.4069-.6809.4068-.8411l.9358-.16-.8951-.08c-1.0578-.04-1.18-.4406-.4475-1.2016.4068-.4406.4068-.5207.0407-.28-.4069.24-.529-.7209-.529-4.1655s.1221-4.4058.529-4.1655.4068.16,0-.28c-.7731-.801-.651-1.0814.61-1.2816l1.0985-.16-1.18-.08c-.9765-.04-1.0985-.12-.651-.6408.3662-.4.3662-.6008.0407-.6008-.2848,0-.4476-1.2016-.4476-3.6448,0-2.7636.1221-3.5647.529-3.3244s.4068.16,0-.28c-.7731-.801-.651-1.0814.61-1.2816l1.0985-.16-1.18-.08c-1.0172-.04-1.0985-.12-.61-.7209.4068-.4406.4068-.5608.0814-.3605-.4069.24-.529-.761-.529-4.4058,0-4.3658.0407-4.6461.7324-4.1254.57.4405.5289.4005-.0814-.3605-.57-.6809-.651-.8812-.2034-.8812.4882,0,.4882-.08-.0407-.4005-.4882-.28-.4475-.4806.2034-1.2817q.9155-1.0213.1221-.3605c-.6917.5207-.7324.28-.7324-3.3244,0-3.0039.1221-3.805.529-3.6047.3661.24.3661.16-.0407-.32-.4476-.5608-.4069-.6809.4068-.8411l.9358-.16-.8951-.08c-1.0578-.04-1.18-.44-.4475-1.2015.4068-.4406.4068-.5207.0407-.28-.4069.24-.529-.721-.529-4.1254,0-3.0441.1628-4.4459.4476-4.4459.3255,0,.3255-.16,0-.5608-.4069-.4806-.2848-.6007.6509-.761l1.1392-.16-1.18-.08c-.9765-.04-1.0985-.12-.651-.6408.3662-.4.3662-.6008.0407-.6008-.2848,0-.4476-1.2016-.4476-3.6448,0-2.7637.1221-3.5647.529-3.3244s.4068.16,0-.28c-.7731-.801-.651-1.0814.61-1.2817l1.0985-.16-1.18-.08c-.9765-.04-1.0985-.12-.651-.6408.3662-.4005.3662-.6008.0407-.6008-.2848,0-.4476-1.4419-.4476-4.4459,0-4.2055.0407-4.4458.7324-3.9252.61.4807.61.4406-.0407-.32-.7323-.801-.7323-.8811,0-1.2817.6916-.4.6916-.4-.0407-.44-.773,0-.773,0,0-.8812.61-.761.651-.8011.0407-.3605-.651.5207-.6917.28-.6917-3.4045.0407-3.5647.0814-3.8851.61-3.2042.57.761.61.761.61-.28,0-1.1615.3662-1.3618,1.18-.5607.4068.4005.4475.3605.2441-.24-.2441-.6008,0-.6809,1.8715-.721a39.0514,39.0514,0,0,0,4.3533-.32c1.8309-.24,2.1157-.2,1.9122.32-.2034.4406-.0407.4406.57-.12.7324-.6809.773-.6809.9765.04.1627.6809.2034.6809.2441-.04.0407-.4807.2441-.6409.6916-.4807.3255.12.5289.08.4069-.08-.1221-.2,1.2205-.6809,2.9293-1.0413,1.7088-.4006,3.3769-.8011,3.7024-.9213.4068-.16.4882-.04.3255.5207-.2848.721-.2442.721.3254,0,.651-.8411.651-.8411,1.3833.3605.4069.721.4476.6809.2035-.3605s-.2035-1.1215.6916-.8411c.7323.2.8137.16.3662-.16-.4882-.32-.4476-.4406.2034-.6809.4475-.12,2.2784-.8812,4.0685-1.6021,2.075-.8812,3.2955-1.2016,3.499-.9212.1627.24.3661.12.5289-.32.2848-.6409.3661-.6409,1.0985.28.6916.8411.773.8812.4068.12-.61-1.1615-.57-1.3218.2441-1.3218.3662,0,.57-.12.4069-.24-.1221-.16,1.0578-1.1215,2.6852-2.1628,1.9122-1.2016,3.0514-1.7223,3.2141-1.4419.2035.28.3255.16.3255-.28,0-.3605.1221-.6809.2848-.6809a3.852,3.852,0,0,1,1.0985.6809c.8544.721.8544.721.0814-.16s-.773-.9212,1.22-2.6034c1.0985-.9613,2.7666-2.4433,3.7431-3.3645.9357-.9212,1.7088-1.562,1.7088-1.4018,0,.12.1627,0,.3661-.32.2848-.4406.5289-.4406,1.302-.04.9764.5207.9764.5207.2034-.3605-.773-.8411-.773-.8411,0-.8411.4882,0,.61-.12.2848-.32s.122-1.0414,1.3833-2.6835c3.3768-4.4459,3.3362-4.4059,3.8651-3.8852a1.5669,1.5669,0,0,0,.8544.4807c.2034,0-.0407-.3605-.57-.8011-.9358-.7209-.9358-.761-.1628-.801.4883,0,.651-.12.3662-.3205-.2441-.16.3255-1.6822,1.6681-4.2055,1.1392-2.1228,2.2377-3.765,2.4411-3.6048.1627.2.2034,0,.0814-.4005-.2441-.6008-.1221-.6809.6509-.4806s.8137.16.2441-.28c-.61-.4806-.5289-.8812.57-4.3257a18.795,18.795,0,0,1,1.5868-3.9252.3137.3137,0,0,0,.0813-.5207c-.122-.2.2035-.4.7324-.4.6916-.04.7323-.12.2441-.24-.4069-.08-.7324-.28-.7324-.4005s.3255-.4807.7324-.761c.57-.4406.57-.5207.0407-.3605-.57.2-.5289-.32.2848-4.4859.5289-2.6035.9764-4.7663.9764-4.8064a2.8289,2.8289,0,0,1,.9358-.24l.895-.16-.895-.08c-1.1392-.04-1.18-.3605-.2035-1.0814.57-.4807.61-.5207.0407-.32-.61.2-.6509-.16-.4882-3.3243a10.8445,10.8445,0,0,1,.57-3.6448c.1627-.08.2441-.3605.1221-.6809-.1628-.3605.1627-.6008.9357-.721,1.0578-.16,1.0171-.16-.2441-.24l-1.3833-.04.773-.8811c.61-.761.651-.8011.0814-.3605-.6917.5207-.7323.24-.7323-4.1655,0-4.2856.0406-4.6862.7323-4.4058.57.2.61.16.2034-.24-.773-.761-.6509-1.0814.4069-1.2817.7323-.12.6916-.2-.2848-.24l-1.18-.04.773-.8811c.61-.761.651-.8011.0814-.3605-.6917.5207-.7323.28-.7323-3.3645,0-3.4845.0813-3.845.6916-3.6448.61.24.61.2-.0407-.5206-.6916-.7611-.6916-.8011.651-.9613l1.3426-.16-1.3833-.04c-1.3833-.08-1.3833-.08-.651-.8811.6917-.721.6917-.8011.0814-.5608s-.6916-.2-.6916-4.2456c0-4.1254.0406-4.4859.7323-4.2055.57.2.61.16.2034-.24-.773-.761-.6509-1.0815.4069-1.2817.7323-.12.6916-.2-.2848-.24-1.18-.04-1.18-.04-.4476-.8412.6917-.7209.6917-.801.0814-.5607-.61.2-.6916-.16-.6916-3.4445s.0813-3.6448.6916-3.4446c.61.24.61.2-.0407-.5207-.6916-.761-.6916-.801.4476-.9612l1.1391-.16-1.18-.08c-1.18-.04-1.18-.04-.4476-.8411.6917-.7209.6917-.801.0814-.5607s-.6916-.2-.6916-4.2456.0813-4.4859.6916-4.2456.61.2-.0407-.5207c-.6916-.761-.6916-.801.651-.9613l1.3426-.16-1.3833-.04c-1.3833-.08-1.3833-.08-.651-.8812.6917-.7209.6917-.801.0814-.5607-.61.2-.6916-.16-.6916-3.6448,0-3.6448.0406-3.8851.7323-3.3645.61.4807.61.4406-.0407-.32-.773-.8411-.7323-.8811.4069-1.0414l1.1391-.16-1.18-.08c-1.18-.04-1.18-.04-.4476-.8411.6917-.7209.6917-.801.0814-.5607s-.6916-.2-.6916-4.4459c0-4.4058.0406-4.6862.7323-4.1655.57.4406.5289.4006-.0814-.3605l-.773-.8811,1.3833-.04c1.2206-.08,1.2612-.08.2848-.24-1.2612-.2-1.3833-.5207-.61-1.2817.4069-.4005.3662-.4406-.2034-.24-.651.28-.7323-.08-.7323-3.6047,0-3.6449.0406-3.8852.7323-3.3645.57.4406.5289.4-.0814-.3605l-.773-.8811,1.18-.04c1.0171-.08,1.0578-.08.2441-.24-.61-.12-.8951-.4005-.7323-.761.122-.32.0406-.5607-.1628-.5607-.2441,0-.4068-1.9226-.4068-4.6462,0-4.3657.0406-4.6461.7323-4.1254.57.4406.5289.4-.0814-.3605l-.773-.8811,1.18-.04c1.0171-.08,1.0578-.08.2441-.24-.61-.12-.8951-.4-.7323-.761.122-.32.0406-.5607-.1628-.5607-.4882,0-.5289-7.17-.0814-7.85a2.2056,2.2056,0,0,1,.8951-.6809c.4476-.16.4476-.24-.1627-.24-.4882-.04-.651-.24-.4882-.6409.122-.32.0406-.6008-.1628-.6008-.4882,0-.57-8.7715-.0814-9.4524a2.2047,2.2047,0,0,1,.8951-.6809c.4476-.16.4476-.24-.1627-.24-.4882-.04-.651-.24-.4882-.6409.122-.32.0406-.6008-.1628-.6008-.2441,0-.4068-1.6421-.4068-3.845,0-3.6048.0406-3.8451.7323-3.3244.57.4406.61.4406.2034-.04a2.6909,2.6909,0,0,1,0-3.2042c.4069-.4806.3662-.4806-.2034-.04-.6917.5207-.7323.24-.7323-4.1254,0-3.004.1627-4.6061.4068-4.4459.2441.12.2848-.04.1628-.36-.1628-.3605-.0407-.6409.2441-.6409.4068,0,.4068-.12,0-.6008a1.0153,1.0153,0,0,1-.1628-1.0413c.1628-.3205.1221-.3605-.1627-.2-.3662.2-.4882-.761-.4882-3.5247,0-2.2029.1627-3.845.4068-3.845.2034,0,.2848-.24.1628-.5608s.0813-.6408.5289-.761c.6509-.16.6509-.2.0406-.24-.895-.04-1.0985-.9613-1.2205-5.7676-.1221-3.2443-.0407-3.8451.4475-3.6848.4476.16.4069,0-.122-.5608-.6917-.761-.6917-.801.2441-.9613l.9357-.16-.9764-.08c-.651-.04-.8544-.2-.6917-.6408.1221-.32.0407-.5608-.1627-.4807-.2034.04-1.0171-1.2416-1.79-2.8437-1.2206-2.4833-1.3427-2.8838-.7324-2.9239.4069-.04.2848-.16-.3255-.32a2.8492,2.8492,0,0,1-1.5053-1.2416c-.2848-.5608-.5289-.8411-.5289-.6409,0,.16-.773-.28-1.7088-1.0413a36.3923,36.3923,0,0,0-3.4989-2.4032c-.9358-.5207-1.5868-1.1215-1.424-1.3217.2034-.16,0-.2-.3662-.08-.5289.16-.7323.04-.773-.4405,0-.4406-.0814-.5207-.2441-.16-.1627.4005-.3662.36-.9765-.16-.7323-.6809-.773-.6809-.5289-.04.2035.6008.1221.6408-.773.32a15.482,15.482,0,0,0-3.9058-.4806c-1.79-.04-2.8886-.24-2.8886-.5207,0-.24-.1628-.2-.3662.12-.3255.5206-.4882.5206-1.0985,0-.4068-.32-.61-.3605-.4475-.12.1627.28-.651.8011-2.2784,1.3618a31.1228,31.1228,0,0,0-3.8244,1.6422c-.9764.6007-1.3019.6408-1.4647.28-.1627-.32-.2441-.28-.2441.16a1.36,1.36,0,0,1-1.0578.9613c-.5289.12-.9358.3605-.8951.5207.1628.5207-3.9058,5.2069-4.3126,4.9665-.2848-.16-.3255,0-.1627.4406.2441.6409.122.6809-.8138.4406-1.0985-.24-1.0985-.24-.3254.3605.6916.5607.7323.6809.2034,1.0414-.3255.2-.4069.4-.1627.4.3254,0,.2441.761-.2848,2.4432a17.7454,17.7454,0,0,0-.7731,4.0453c0,1.3618-.122,1.5621-.6916,1.3218-.61-.2-.651-.16-.2034.24.7323.761.61,1.1615-.4069,1.2016-.8544.04-.8544.08-.122.24,1.2612.32,1.4239.8411,1.4239,4.8864,0,3.4045-.0813,3.725-.6916,3.4446-.61-.2-.651-.16-.2034.24.7323.761.61,1.0814-.4069,1.2817-.773.12-.7323.2.2441.24l1.18.04-.773.8811c-.61.761-.651.8011-.0407.3605.651-.5207.6916-.24.6916,4.1655,0,4.2856-.0406,4.6862-.6916,4.4058-.61-.2-.651-.16-.2034.24.773.8011.57,1.1615-.61,1.2016-1.1392.08-1.1392.08-.1221.24a2.1956,2.1956,0,0,1,1.302.6809,17.5071,17.5071,0,0,1,.3254,4.2056c0,3.4044-.0813,3.7249-.6916,3.4445-.61-.2-.651-.16-.2034.24.7323.761.61,1.0814-.61,1.2817-1.0171.16-.9765.16.2441.24,1.3833.04,1.3833.04.651.8411-.6917.721-.6917.8011-.0814.5608s.6916.2.6916,4.2456c0,4.1254-.0406,4.4859-.6916,4.2055-.61-.2-.651-.16-.2034.24.7323.761.61,1.0815-.61,1.2817l-1.1392.16,1.1392.08c1.18.04,1.3833.4006.61,1.2016-.4476.4006-.4069.4406.2034.24.61-.28.6916.04.6916,3.4045s-.0813,3.6849-.6916,3.4045c-.61-.2-.651-.16-.2034.24.7323.761.61,1.0815-.61,1.2817l-1.1392.16,1.1392.08c1.18.04,1.3833.4006.61,1.2016-.4476.4006-.4069.4406.2034.24.651-.28.6916.08.6916,4.2056,0,4.0453-.0813,4.4859-.6916,4.2456s-.61-.16.0814.5607c.7323.8011.7323.8011-.4476.8411-.9764.04-1.0171.12-.2441.24,1.0171.2,1.1392.5206.4069,1.2816-.4476.4006-.4069.4406.2034.24.61-.28.6916.04.6916,3.4445a17.5078,17.5078,0,0,1-.3254,4.2056,2.1955,2.1955,0,0,1-1.302.6808c-1.0171.16-1.0171.16.1221.24,1.18.04,1.3833.4.61,1.2016-.4476.4005-.4069.44.2034.24.651-.28.6916.12.6916,4.4058,0,4.4058-.0406,4.6862-.6916,4.1655-.61-.4406-.57-.4006.0407.36l.773.8812-1.18.04c-.9764.04-1.0171.12-.2441.24,1.0171.2,1.1392.5207.4069,1.2817-.4476.4005-.4069.44.2034.24.61-.28.6916.04.6916,3.4445,0,4.0454-.1627,4.566-1.4239,4.8865-.7324.16-.7324.2.122.24,1.0171.04,1.1392.4406.4069,1.2016-.4476.4-.4069.4406.2034.24.651-.28.6916.08.6916,4.2456,0,4.8464-.122,5.3671-1.4239,5.6875-.7324.16-.7324.2.122.24,1.0171.04,1.1392.4406.4069,1.2016-.4476.4-.4069.4406.2034.24.61-.28.6916.08.6916,3.5647,0,2.4432-.1627,3.8451-.4475,3.8451-.2034,0-.2848.16-.1627.4.122.2.0406.4005-.2442.4005-.3254,0-.3661.16,0,.5207a.655.655,0,0,1-.0813,1.0414c-.3662.4005-.3255.4406.2848.2.6916-.28.773-.16.5289,1.2816a33.6248,33.6248,0,0,0-.2848,4.7263c0,2.9238-.0407,3.1241-.6917,2.6034-.6916-.5207-.6916-.5207-.0407.28.57.6408.61.9212.2442,1.2817s-.3662.4806.0406.4806c.4476,0,.4476.12,0,.6809-.4882.5607-.4882.6408,0,.32.4883-.28.529.12.3255,2.4432-.1627,1.5221-.2848,3.2844-.2848,3.8852,0,.6408-.1627,1.0413-.4068.8811s-.2848.04-.1221.4006a.905.905,0,0,1-.3255,1.0413c-.4882.28-.4882.3605,0,.3605.2848,0,.4476.24.2848.6008-.122.32-.0813.6008.0814.6008a8.1981,8.1981,0,0,1,0,3.0841c-.122,1.7222-.2848,3.7249-.2848,4.4859-.0407,1.0814-.1627,1.2817-.7323,1.0413-.61-.2-.651-.16-.2034.24.6916.7209.61,1.0814-.2035,1.2817-.6509.16-.6509.2.0407.24.61.04.651.16.2441.6408-.2848.32-.3255.6008-.122.6008.2441,0,.1627,1.482-.2035,3.6048-.5289,3.044-.7323,3.6047-1.2612,3.4045s-.57-.16-.1221.24c.8544.8811.529,1.2416-.8137,1.0013-1.22-.24-1.2612-.2-.3254.16,1.4239.6008,1.4646.721.57,1.4019-.6916.5206-.6916.5607-.0406.36.8544-.32.8137.08-.8137,5.2069-1.0985,3.4846-1.7088,4.3657-2.848,4.0053-.651-.2-.651-.16.0814.4406.6509.5206.6916.6809.2441.9612-.3255.24-.3662.4005-.0814.4807,1.0578.36-4.5567,7.9705-5.94,7.9705a.3385.3385,0,0,0-.3255.4806c.2441.6408-3.1735,2.9239-5.8587,3.9652-2.4411.8812-3.0514.9613-2.6445.24.2441-.36.1627-.36-.2848.04-.773.7209-1.0985.6008-1.302-.4406-.1627-.7209-.1627-.6809-.2441.24-.0813,1.9626-.8544.721-.8544-1.4018,0-1.8825.0407-1.9626.7324-1.482.6509.5207.6509.5207,0-.28-.57-.6409-.61-.9213-.2441-1.2817s.3661-.4807-.0814-.4807c-.3662,0-.3255-.24.2441-.8811.61-.761.651-.8011.0407-.3605-.651.5207-.6917.24-.6917-4.1254,0-3.6448.1221-4.6462.529-4.4058.3661.24.3661.16-.0407-.32-.4476-.5607-.4069-.6809.4068-.8411l.9358-.16-.8951-.08c-1.0578-.04-1.18-.4406-.4068-1.2016.4068-.4406.4068-.5207,0-.28s-.529-.5607-.529-3.3243c0-2.4433.1628-3.6448.4476-3.6448.3255,0,.3255-.16,0-.5608-.4069-.4806-.2848-.6008.8544-.761l1.3426-.16-1.3019-.04c-1.424-.08-1.6275-.4006-.8137-1.2417.4068-.4406.4068-.5207,0-.28s-.529-.7209-.529-4.1654.1221-4.4059.529-4.1655.4068.16,0-.28c-.7731-.8011-.651-1.0814.61-1.2817l1.0985-.16-1.18-.08c-1.0172-.04-1.0985-.12-.61-.721.4068-.44.4068-.5607.0814-.36-.4069.2-.529-.6008-.529-3.5647s.1221-3.8051.529-3.5647.4068.16,0-.28c-.7731-.761-.651-1.0814.4068-1.2817.8951-.16.8951-.16-.0814-.24-.8544-.04-.895-.12-.4068-.721.4068-.4406.4068-.5607.0814-.36-.4069.24-.529-.7611-.529-4.3658s.1221-4.6061.529-4.3658c.3661.24.3661.16-.0407-.32-.4476-.5607-.4069-.6809.4068-.8411l.9358-.16-.8951-.08c-1.0578-.04-1.18-.4406-.4068-1.2016.4068-.4406.4068-.5207,0-.28s-.529-.6008-.529-3.5647.1221-3.7649.529-3.5647c.3661.24.3661.16-.0407-.32-.4476-.5607-.4069-.6809.4068-.8411l.9358-.16-.8951-.08c-1.0578-.04-1.18-.4406-.4068-1.2016.3661-.4406.3661-.5207,0-.28-.4069.24-.529-.7209-.529-4.1655s.1221-4.4058.529-4.1655.4068.16,0-.28c-.7731-.8011-.651-1.0815.61-1.2817l1.0985-.16-1.18-.08c-.9765-.04-1.0985-.12-.651-.6409.3662-.4.3662-.6008.0407-.6008-.2848,0-.4476-1.2016-.4476-3.6448,0-2.7636.1221-3.5647.529-3.3244s.4068.16,0-.28c-.7731-.8011-.651-1.0815.61-1.2817l1.0985-.16-1.18-.08c-1.0172-.04-1.0985-.12-.61-.721.4068-.4406.4068-.5607.0814-.3605-.4069.24-.529-.761-.529-4.4058,0-4.3657.0407-4.6461.7324-4.1254.57.4406.5289.4-.0814-.3605-.57-.6809-.651-.8811-.2034-.8811.4882,0,.4882-.08-.0407-.4006-.4882-.28-.4475-.4806.2034-1.2817q.9155-1.0213.1221-.36c-.6917.5206-.7324.28-.7324-3.3244,0-3.004.1221-3.805.529-3.6048.3661.24.3661.16-.0407-.32-.4476-.5607-.4069-.6809.4068-.8411l.9358-.16-.8951-.08c-1.0578-.04-1.18-.4406-.4068-1.2016.4068-.4406.4068-.5207,0-.28s-.529-.7209-.529-4.1254c0-3.044.1628-4.4459.4476-4.4459.3255,0,.3255-.2-.0407-.6008-.4475-.5207-.3255-.6008.651-.6408l1.18-.04-1.0578-.28c-1.0171-.24-1.0171-.32-1.1392-4.4059-.0813-3.3644,0-4.0853.4476-3.845.4068.24.4475.2.0407-.24-.7731-.8011-.651-1.0815.61-1.2817l1.0985-.16-1.18-.08c-.9765-.04-1.0985-.12-.651-.6409.3662-.4005.3662-.6008.0407-.6008-.2848,0-.4476-1.4419-.4476-4.4458,0-4.2056.0407-4.4459.7324-3.9252.6509.5207.6509.5207,0-.28a2.9824,2.9824,0,0,1-.7324-1.0814c0-.12.3255-.32.7324-.4005.61-.16.61-.2-.0814-.24-.773-.04-.773-.04,0-.9212.61-.761.651-.801.0814-.3605-.6917.5207-.7324.28-.7324-3.3644s.0407-3.8851.7324-3.3644c.57.4406.5289.4005-.0814-.3605-.57-.6809-.651-.8812-.2034-.8812.4882,0,.4882-.08-.0407-.4005-.4882-.28-.4475-.4806.2034-1.2817q.9155-1.0214.1221-.3605c-.6917.5207-.7324.28-.7324-3.9251,0-3.004.1628-4.4459.4476-4.4459.3255,0,.3255-.16,0-.5607-.4069-.4807-.2848-.6008.8544-.761l1.3426-.16-1.3019-.04c-1.424-.08-1.6275-.4005-.8137-1.2416.4068-.4406.3661-.4807-.0407-.24-.4476.24-.5289-.4806-.4476-3.845.1221-4.0854.1221-4.1655,1.1392-4.4058l1.0578-.28-1.18-.04c-.9765-.04-1.0985-.12-.651-.6408.3662-.4.3662-.6008.0407-.6008-.2848,0-.4476-1.4018-.4476-4.4459,0-3.4045.1221-4.3657.529-4.1254s.4068.16,0-.28c-.7731-.761-.651-1.0814.4068-1.2817.8951-.16.8951-.16-.0814-.24-.8544-.04-.895-.12-.4068-.7209.4068-.4406.4068-.5608.0814-.3605-.4069.2-.529-.6008-.529-3.6048,0-3.6047.0407-3.845.7324-3.3243.6509.5206.6509.5206,0-.28-.57-.6409-.61-.9212-.2441-1.2817s.3661-.4806-.0814-.4806c-.3662,0-.3255-.24.2441-.8812.61-.761.651-.8011.0814-.3605-.6917.5207-.7324.24-.7324-4.1254,0-3.6448.1221-4.6461.529-4.4058.3661.24.3661.16-.0407-.32-.4476-.5608-.4069-.6809.4068-.8412l.9358-.16-.8951-.08c-1.0578-.04-1.18-.4406-.4068-1.2016.4068-.44.4068-.5206,0-.28s-.529-.5608-.529-3.3244c0-2.4432.1628-3.6448.4476-3.6448.3255,0,.3255-.16,0-.5608-.4069-.4806-.2848-.6007.8544-.761l1.3426-.16-1.3019-.04c-1.424-.08-1.6275-.4-.8137-1.2417.4068-.4405.4068-.5206,0-.28s-.529-.721-.529-4.1655.1221-4.4058.529-4.1655.4068.16,0-.28c-.8138-.801-.651-1.0814.8137-1.2817l1.3019-.16-1.3833-.04c-1.2206-.08-1.3019-.16-.8137-.761.4068-.4406.4068-.5608.0814-.3605-.4069.2-.529-.6008-.529-3.5647s.1221-3.805.529-3.5647.4068.16,0-.28c-.7731-.761-.651-1.0814.4068-1.2817.8951-.16.8951-.16-.0814-.24-.8544-.04-.895-.12-.4068-.7209.4068-.4406.4068-.5608.0814-.3605-.4069.24-.529-.761-.529-4.3658s.1221-4.6061.529-4.3657c.3661.24.3661.16-.0407-.3205-.4476-.5607-.4069-.6809.2034-.8411.6916-.16.6916-.2.0407-.24-.8544-.04-.9358-.4806-.2034-1.2016.4068-.44.4068-.5207,0-.28s-.529-.6008-.529-3.5647.1221-3.765.529-3.5647c.3661.24.3661.16-.0407-.3205-.4476-.5607-.4069-.6809.4068-.8411l.9358-.16-.8951-.08c-1.0578-.04-1.18-.4406-.4068-1.2016.4068-.4406.4068-.5207,0-.28s-.529-.721-.529-4.1655.1221-4.4058.529-4.1655.4068.16,0-.28c-.7731-.8011-.651-1.0814.61-1.2817l1.0985-.16-1.18-.08c-.9765-.04-1.0985-.12-.651-.6408.3662-.4006.3662-.6008.0407-.6008-.2848,0-.4476-1.2016-.4476-3.6448,0-2.7637.1221-3.5647.529-3.3244s.4068.16,0-.28c-.7731-.8011-.651-1.0814.61-1.2817l1.0985-.16-1.18-.08c-1.0172-.04-1.0985-.12-.61-.721.4068-.4405.4068-.5607.0814-.36-.4069.24-.529-.761-.529-4.4058,0-4.3658.0407-4.6462.7324-4.1255.57.4406.5289.4-.0814-.3605-.57-.6408-.61-.8811-.2441-.8811.4475,0,.4475-.12.0814-.4807s-.3255-.6408.2441-1.2816c.61-.721.61-.761,0-.3205-.61.4807-.6917.24-.8137-3.1241-.0814-3.0039-.0407-3.5647.4475-3.4045.4069.16.3662-.04-.1627-.6008-.7324-.801-.7324-.801.2441-.8411l.9764-.04-1.0171-.3205c-.57-.16-.8137-.36-.61-.36q.3662-.06,0-.3605a5.2663,5.2663,0,0,1-.9764-2.0427,34.5948,34.5948,0,0,0-1.9122-4.566,19.6481,19.6481,0,0,1-1.424-3.4446c0-.4005-.0814-.4405-.2034-.16s-1.2613-.5207-2.7666-2.0026a19.0616,19.0616,0,0,0-10.09-5.7676,6.1488,6.1488,0,0,1-2.36-.9613c0-.2-.2441-.24-.57-.12-.4069.16-.4882-.08-.4069-.9213.1628-1.0413-.0406-.801-.4882.6409-.1627.4406-.2848.4406-.8544,0-.4882-.4-.57-.4-.3661-.08.2034.4-.57.5207-3.4176.5207s-3.621-.12-3.4176-.5207c.2035-.32.1221-.32-.3661.08-.57.4406-.6917.4406-.8544,0C399.9143,99.8473,399.7109,99.607,399.8737,100.6083Z"/><path d="M420.257,104.5735c-.1628.24-.2035.4807-.0814.6008.0814.12.2848-.08.4068-.4406C420.8672,104.0528,420.6231,103.9327,420.257,104.5735Z"/><path d="M463.6274,220.5665c.2848.4806.61.801.7323.6809.1221-.08-.122-.4807-.5289-.8812C463.1392,219.7254,463.0985,219.7254,463.6274,220.5665Z"/><path d="M493.45,224.0911c-.4069.32-.57.6008-.3255.6008a1.76,1.76,0,0,0,.9764-.6008C494.7516,223.33,494.4668,223.33,493.45,224.0911Z"/><path d="M350.8887,332.8345a.4341.4341,0,0,0,.4068.4005.4045.4045,0,0,0,.4069-.4005.3815.3815,0,0,0-.4069-.4A.4046.4046,0,0,0,350.8887,332.8345Z"/><path d="M442.227,420.55a3.0993,3.0993,0,0,0,.9357.801c.1221,0-.122-.36-.5289-.801a3.1,3.1,0,0,0-.9357-.8011C441.576,419.7491,441.82,420.11,442.227,420.55Z"/><path d="M322.6124,501.4569c-.122.24.0407.28.3662.16.7323-.28.8544-.5608.2848-.5608A.7752.7752,0,0,0,322.6124,501.4569Z"/><path d="M228.1734,281.9347c-.1113.3015-.1948.3015-.5845,0-.3341-.274-.39-.274-.2506-.0548.1392.274-.39.3563-2.3383.3563s-2.4775-.0823-2.3383-.3563c.1392-.2192.0835-.2192-.2506.0548-.39.3015-.4732.3015-.5845,0-.3063-.9866-.4454-1.151-.3341-.4385.0557.5755,0,.74-.2784.63-.2227-.0822-.39-.0548-.39.0823a4.2086,4.2086,0,0,1-1.6145.6577,13.0416,13.0416,0,0,0-6.9037,3.9462c-1.03,1.014-1.8094,1.5621-1.8929,1.37s-.1392-.1644-.1392.11a13.446,13.446,0,0,1-.9743,2.3568,23.6737,23.6737,0,0,0-1.3084,3.1241,3.6009,3.6009,0,0,1-.6681,1.3976q-.2505.2055,0,.2466c.1392,0-.0278.1371-.4175.2467l-.6959.2192.668.0274c.6681.0274.6681.0274.1671.5755-.3619.3837-.39.5207-.1114.4111.3341-.11.3619.274.3062,2.3294-.0835,2.302-.1392,2.4664-.5567,2.1375-.4176-.3014-.4176-.274,0,.2193.39.4384.4175.63.167.8769s-.25.3289.0557.3289c.25,0,.2227.1644-.167.6029-.4176.5207-.4454.5481-.0557.2466.4732-.3562.5011-.1644.5011,2.8227,0,2.4938-.0836,3.1789-.3619,3.0145-.2227-.137-.2227-.0548.0556.2466.3341.4111.2784.4659-.4175.4933l-.8073.0548.7516.11c.863.1371.9465.3289.4176.877-.2784.3014-.2784.3562,0,.1918s.3619.3837.3619,2.2746c0,1.6717-.1114,2.4938-.3063,2.4938-.2227,0-.2227.137.0279.4111.3062.3562.2227.411-.4454.4385l-.8073.0548.7516.11c.863.137.9465.3288.4176.8769-.2784.3015-.2784.3563,0,.1919s.3619.4932.3619,2.85-.0836,3.0145-.3619,2.85-.2784-.11,0,.1918c.5289.5207.4454.7948-.2784.8222l-.6124.0548.64.11c.5568.11.5846.1918.2784.5755-.2784.3289-.2784.3837-.0278.2192.2783-.137.3619.4111.3619,2.439s-.0836,2.6035-.3619,2.439-.2784-.11,0,.1919c.501.4933.4454.7947-.1392.8221-.4454.0274-.4454.0548.0278.1644.4176.11.4454.1919.1392.5755-.2784.3289-.2784.3837-.0278.2193.2783-.1645.3619.5207.3619,2.9871s-.0836,3.1515-.3619,2.9871c-.2227-.1371-.2227-.0548.0556.2466.3341.4111.3063.4659-.2783.4933-.6681.0548-.6681.0548-.0557.1644.7238.137.8073.3563.2784.877-.2784.3014-.2784.3562,0,.1918s.3619.4111.3619,2.439-.0836,2.576-.3619,2.439c-.2227-.137-.2227-.0548.0556.2466.3341.4111.2784.4659-.5567.5207l-.9465.0274.8908.11c1.0022.137,1.1135.3288.5568.8769-.2784.3015-.2784.3563,0,.1918s.3619.4933.3619,2.85-.0836,3.0145-.3619,2.85-.2784-.11,0,.1918c.5567.5755.4175.7947-.5568.85l-.8908.0274.9187.11c.7794.11.8629.1918.5845.5207-.2227.274-.2227.3836,0,.3836.1949,0,.3063.8222.3063,2.4938,0,1.891-.0836,2.439-.3619,2.2746s-.2784-.11,0,.1919c.5289.5206.4454.7947-.2784.8221l-.6124.0548.64.11c.5568.11.5846.1918.2784.5755-.2784.3289-.2784.3837-.0278.2192.2783-.1644.3619.5207.3619,3.0146,0,2.987-.0279,3.1789-.5011,2.8226-.39-.3014-.3619-.274.0557.2467.39.4384.4175.6029.167.6029-.3062,0-.3062.0822-.0557.3288s.2227.4385-.167.877c-.4454.5481-.4454.5481,0,.1918.4732-.3563.5011-.1918.5011,2.2746,0,2.0553-.0836,2.6034-.3619,2.4664-.2227-.137-.2227-.0548.0556.2466.3341.4111.3063.4659-.2783.4933-.6681.0548-.6681.0548-.0557.1644.7238.1371.8073.3563.2784.877-.2784.3014-.2784.3562,0,.1918s.3619.4933.3619,2.8227c0,2.0827-.1114,3.0419-.3063,3.0419-.2227,0-.2227.137.0279.4111.3062.3562.2227.411-.4454.4384l-.8073.0274.7238.1919c.6959.1644.6959.2192.7794,3.0145.0557,2.3019,0,2.7952-.3062,2.6308-.2784-.1644-.3062-.137-.0278.1644.5567.5755.4175.7948-.5568.85l-.8908.0274.9187.11c.7794.11.8629.1918.5845.5207-.2227.274-.2227.3836,0,.3836.1949,0,.3063.9866.3063,3.042,0,2.8774-.0279,3.0419-.5011,2.6856q-.5428-.4523.0835.2466c.4454.5481.4732.6852.1392.877-.3619.2192-.3619.274-.0279.274.3063,0,.2506.1371-.1391.6029-.4176.5207-.4454.5481-.0557.2467.4732-.3563.5011-.1919.5011,2.302s-.0279,2.6582-.5011,2.3019c-.39-.3014-.3619-.274.0557.2467.5289.6029.5289.6029,0,.63-.4733.0274-.4733.0548-.0557.1644.2784.0548.5011.1918.5011.2741a2.0409,2.0409,0,0,1-.5011.74c-.4454.5481-.4454.5481,0,.1918.4732-.3562.5011-.1918.5011,2.6857,0,2.0553-.1114,3.0419-.3063,3.0419-.2227,0-.2227.137.0279.411.3062.3563.2227.4111-.4454.4385l-.8073.0548.7516.11c.863.1371.9465.3289.4176.877-.2784.3014-.2506.3288.0278.1644.3062-.1644.3619.3289.3062,2.6308-.0835,2.7953-.0835,2.85-.7794,3.0145l-.7238.1919.8073.0274c.6681.0274.7516.0822.4454.4385-.2506.274-.2506.411-.0279.411.1949,0,.3063.9592.3063,3.0419,0,2.3294-.0836,2.9871-.3619,2.8227s-.2784-.11,0,.1918c.5289.5207.4454.7948-.2784.8222l-.6124.0548.64.11c.5568.11.5846.1918.2784.5755-.2784.3288-.2784.3837-.0278.2192.2783-.137.3619.4111.3619,2.4664,0,2.4664-.0279,2.6309-.5011,2.2746q-.5428-.4521.0835.2467c.4454.548.4732.6851.1392.8769-.3619.2192-.3619.274-.0279.274.3063,0,.2506.1371-.1391.6029-.4176.5207-.4454.5481-.0557.2467.4732-.3563.5011-.1644.5011,2.8227,0,2.4938-.0836,3.1789-.3619,3.0145-.2227-.1371-.2227-.0549.0556.2466.3341.4111.2784.4659-.4175.4933l-.8073.0548.7516.11c.863.137.9465.3289.4176.877-.2784.3014-.2784.3562,0,.1918s.3619.3837.3619,2.2746c0,1.6716-.1114,2.4938-.3063,2.4938-.2227,0-.2227.137.0279.411.3062.3563.2227.4111-.4454.4385l-.8073.0548.7516.11c.863.1371.9465.3289.4176.877-.2784.3014-.2784.3563,0,.1918s.3619.4933.3619,2.85-.0836,3.0145-.3619,2.85c-.2506-.1645-.2506-.11,0,.1918.5289.5207.4454.7947-.2784.8221l-.6124.0549.64.11c.5568.11.5846.1918.2784.5755-.2784.3288-.2784.3836-.0278.2192.2783-.137.3619.4111.3619,2.439s-.0836,2.6034-.3619,2.439-.2784-.11,0,.1918c.5289.5207.4454.7948-.2784.8222l-.6124.0548.64.11c.5568.11.5846.1918.2784.5755-.2784.3289-.2784.3837-.0278.2192.2783-.1644.3619.5207.3619,2.9871s-.0836,3.1516-.3619,2.9871c-.2227-.137-.2227-.0548.0556.2467.3341.411.3063.4659-.2783.4933-.6681.0548-.6681.0548-.0557.1644.7238.137.8073.3562.2784.8769-.2784.3015-.2784.3563,0,.1919s.3619.411.3619,2.439-.0836,2.576-.3619,2.439c-.2227-.137-.2227-.0548.0556.2466.3341.4111.2784.4659-.4175.4933l-.8073.0548.7516.11c.863.137.9465.3289.4176.877-.2784.3014-.2784.3562,0,.1918s.3619.4933.3619,2.85-.0836,3.0145-.3619,2.85-.2784-.11,0,.1918c.5567.5755.4175.7947-.5568.85l-.8908.0274.9187.11c.7794.11.8629.1919.5845.5207-.2227.2741-.2227.3837,0,.3837.1949,0,.3063.8221.3063,2.4938,0,1.8909-.0836,2.439-.3619,2.2746s-.2784-.11,0,.1918c.5289.5207.4454.7948-.2784.8222l-.6124.0548.64.11c.5568.11.5846.1918.2784.5755-.2784.3288-.2784.3836-.0278.2192.2783-.1644.3619.5207.3619,3.0145,0,2.9871-.0279,3.1789-.4733,2.8227-.4175-.3015-.39-.2741.0279.2466.39.4385.4175.6029.167.6029-.3062,0-.3062.0822-.0557.3289s.2227.4385-.167.8769c-.4454.5481-.4454.5481,0,.1919.4732-.3289.5011-.2741.5011,1.0139,0,1.4525-.529,2.302-.5846.9592-.0557-.63-.0557-.6577-.1671-.1644-.1391.7125-.3618.7947-.8907.3014-.3063-.274-.3619-.274-.1949-.0274.2784.4933-.1392.4385-1.8094-.1644-1.8373-.7125-4.1756-2.2746-4.0086-2.7131a.2316.2316,0,0,0-.2227-.3288c-.9465,0-4.788-5.2069-4.0642-5.4535.1948-.0548.167-.1645-.0557-.3289-.3062-.1918-.2784-.3014.167-.6577.5011-.4111.5011-.4385.0557-.3014-.7794.2466-1.197-.3563-1.9486-2.74-1.1135-3.5078-1.1413-3.7818-.5568-3.5626.4454.137.4454.11-.0278-.2466-.6124-.4659-.5846-.5481.39-.9592.64-.2466.6124-.274-.2227-.11-.9186.1644-1.1413-.0822-.5567-.6851.3062-.2741.2784-.3015-.0835-.1645s-.5011-.2466-.863-2.3293c-.2505-1.4525-.3062-2.4665-.1392-2.4665.1392,0,.1114-.1918-.0835-.411-.2784-.3289-.2505-.4111.167-.4385.4733-.0274.4733-.0548.0279-.1644-.5568-.137-.6124-.3837-.1392-.877.3062-.274.2784-.3014-.1392-.1644-.39.1644-.4732.0274-.5011-.7125,0-.5207-.1113-1.8909-.1948-3.0693a5.6056,5.6056,0,0,1,0-2.11c.1113,0,.1392-.1918.0556-.411-.1113-.2467,0-.4111.1949-.4111.3341,0,.3341-.0548,0-.2467a.6193.6193,0,0,1-.2227-.7125c.1114-.2466.0835-.3836-.0835-.274s-.2784-.1644-.2784-.6029c0-.4111-.0835-1.6169-.1948-2.6583-.1392-1.5894-.1114-1.8635.2227-1.6716.334.2192.334.1644,0-.2193-.3062-.3836-.3062-.4658,0-.4658.2783,0,.2783-.0823.0278-.3289s-.2227-.4385.167-.8769c.4454-.5481.4454-.5481-.0278-.1919-.4454.3563-.4732.2193-.4732-1.7813a23.017,23.017,0,0,0-.1949-3.2337c-.167-.9866-.1114-1.0688.3619-.877.4175.1645.4454.1371.1948-.137a.4481.4481,0,0,1-.0556-.7125c.25-.2466.2227-.3563,0-.3563-.1949,0-.2506-.137-.1671-.274.0836-.1644.0279-.2741-.1113-.2741-.1949,0-.3062-.9591-.3062-2.6308,0-2.3842.0557-2.6308.4732-2.439.4176.137.4454.11.1392-.1644-.5011-.5207-.4176-.7948.2784-.8222.5846-.0274.5846-.0548.0835-.1644-.8908-.2192-.9743-.5755-.9743-3.8914,0-2.85.0278-3.0968.4732-2.9049.4176.137.4454.11.1392-.1644-.5011-.5207-.4176-.7948.2784-.8222.5846-.0274.5846-.0548.0835-.1644-.863-.2192-.9743-.5755-.9743-3.3434,0-2.3294.0557-2.5486.4732-2.3568.4176.1371.4454.11.1392-.1644-.5011-.5207-.4176-.74.2784-.8769.5289-.0822.501-.1371-.1671-.1645l-.8072-.0274.5289-.6029c.4175-.5206.4454-.5481.0278-.2466-.4454.3563-.4732.1644-.4732-2.85,0-2.9323.0278-3.2063.4732-3.0145.4176.137.4454.11.1392-.1644-.5289-.5481-.39-.7947.4176-.8221.7794-.0549.7794-.0549.0835-.1645a1.5016,1.5016,0,0,1-.8908-.4658,11.9736,11.9736,0,0,1-.2227-2.8775c0-2.3294.0557-2.5487.4732-2.3568.4176.137.4454.11.1392-.1644-.5011-.5207-.4176-.74.2784-.877.5289-.0822.501-.137-.1671-.1644-.8072-.0274-.8072-.0274-.3062-.5755.4733-.4933.4733-.5481.0557-.3837s-.4732-.137-.4732-2.9049c0-2.8226.0278-3.0693.4732-2.8774.4176.137.4454.11.1392-.1645-.5289-.5481-.39-.7947.4176-.8221l.7794-.0548-.7794-.11c-.8352-.1371-.9187-.3563-.4176-.877.3062-.274.2784-.3014-.1392-.1644-.4175.1918-.4732-.0274-.4732-2.3294s.0557-2.5212.4732-2.3294c.4176.137.4454.11.1392-.1644-.5289-.5481-.39-.7947.4176-.8221l.7794-.0549-.7794-.11c-.8352-.137-.9187-.3562-.4176-.8769.3062-.2741.2784-.3015-.1392-.1644-.4454.1918-.4732-.0549-.4732-2.8775,0-2.7679.0557-3.0693.4732-2.9049s.4176.11-.0557-.3837c-.501-.5481-.501-.5481.4454-.5755.8352-.0548.863-.0548.1671-.1644-.8352-.137-.9187-.3563-.4176-.8769.3062-.2741.2784-.3015-.1392-.1645-.4175.1919-.4732-.0274-.4732-2.3568a11.9718,11.9718,0,0,1,.2227-2.8774,1.5011,1.5011,0,0,1,.8908-.4659c.6959-.11.6959-.11-.0835-.1644-.8073-.0274-.9465-.2741-.4176-.8222.3062-.274.2784-.3014-.1392-.1644-.4454.1918-.4732-.0822-.4732-3.0145,0-3.0145.0278-3.2063.4732-2.85.4176.3015.39.2741-.0278-.2466l-.5289-.6029.8072-.0274c.6681-.0274.696-.0822.1671-.1645-.696-.137-.7795-.3562-.2784-.8769.3062-.274.2784-.3015-.1392-.1644-.4175.1918-.4732-.0274-.4732-2.3568,0-2.7679.1113-3.1241.9743-3.3434.5011-.11.5011-.137-.0835-.1644-.696-.0274-.7795-.3015-.2784-.8221.3062-.2741.2784-.3015-.1392-.1645-.39.1645-.4732.0274-.4732-.9043a12.1477,12.1477,0,0,0-.5289-2.7679c-.3619-1.151-.4176-1.6717-.1949-1.6717.167,0,.1114-.137-.1113-.274-.3619-.2466-.3341-.3289.1391-.7125.529-.4111.529-.4111-.2226-.2467-.64.1645-.7238.1371-.5568-.3014.1114-.3015.0835-.4111-.1113-.3015-.2784.1645-3.0621-3.0419-2.9508-3.3981.0278-.11-.25-.2741-.6124-.3563a.9311.9311,0,0,1-.7238-.6577c0-.3014-.0557-.3289-.167-.11-.1114.2466-.3341.2192-1.0021-.1918a21.2974,21.2974,0,0,0-2.6167-1.1236c-1.1135-.3837-1.67-.74-1.5589-.9318.1113-.1644-.0279-.137-.3062.0822-.4176.3563-.529.3563-.7517,0-.1391-.2192-.25-.2466-.25-.0822,0,.1918-.7516.3289-1.9764.3563a10.5954,10.5954,0,0,0-2.6724.3288c-.6124.2193-.6681.1919-.5289-.2192.167-.4385.1392-.4385-.3619.0274-.4176.3563-.5567.3837-.6681.11-.1113-.2466-.167-.1918-.167.11-.0279.3289-.167.4111-.5289.3015-.2506-.0822-.39-.0548-.2506.0548.1114.137-.334.5481-.9743.9043a24.9089,24.9089,0,0,0-2.394,1.6443c-.64.5207-1.1691.8222-1.1691.7125,0-.137-.1671.0548-.3619.4385a1.95,1.95,0,0,1-1.03.8495c-.4176.11-.5011.1919-.2227.2193.4176.0274.3341.3014-.5011,2.0005a5.6862,5.6862,0,0,1-1.2248,1.9457c-.1392-.0548-.1949.11-.1114.3289.1114.3014-.0278.4111-.4732.4385l-.6681.0548.64.11c.64.11.64.137.167.6577-.3619.3837-.39.4933-.0835.3837.334-.11.39.3014.3062,2.5212-.0835,3.2885-.2227,3.9188-.8351,3.9462-.4176.0274-.4176.0549.0278.1645.3062.0822.4454.3014.3619.5207s-.0278.3836.1113.3836c.1671,0,.2784,1.1236.2784,2.6309,0,1.8909-.0835,2.5486-.334,2.4116-.1949-.11-.2227-.0823-.1114.137a.6945.6945,0,0,1-.1113.7125c-.2784.3289-.2784.4111,0,.4111.1948,0,.2783.1918.167.4384-.0835.2193-.0557.3289.1113.2467.1671-.11.2784.9865.2784,3.0419,0,2.9871-.0278,3.1789-.501,2.8227-.39-.3015-.4176-.3015-.1392.0274a1.8414,1.8414,0,0,1,0,2.1923c-.2784.3289-.2506.3289.1392.0274.4732-.3562.501-.1918.501,2.2746,0,1.5073-.1113,2.6308-.2784,2.6308-.1391,0-.1948.1919-.1113.4111.1113.2741,0,.4111-.334.4385-.4176,0-.4176.0548-.1114.1644a1.5083,1.5083,0,0,1,.6124.4659c.3341.4659.2784,6.4675-.0557,6.4675-.1391,0-.1948.1918-.1113.411.1113.2741,0,.4111-.334.4385-.4176,0-.4176.0548-.1114.1644a1.5091,1.5091,0,0,1,.6124.4659c.3062.4659.2784,5.3713-.0557,5.3713-.1391,0-.1948.1644-.1113.3837.1113.2466-.0835.4384-.5011.5207-.5567.11-.5289.11.1671.1644l.8072.0274-.5289.6029c-.4175.5207-.4454.5481-.0556.2466.4732-.3562.501-.1644.501,2.8227,0,1.8635-.1113,3.1789-.2784,3.1789-.1391,0-.1948.1645-.1113.3837.1113.2466-.0835.4385-.5011.5207-.5567.11-.5289.11.1671.1644l.8072.0274-.5289.6029c-.4175.5207-.4454.5481-.0556.2467.4732-.3563.501-.1919.501,2.3019,0,2.4116-.0557,2.6583-.501,2.4664-.39-.137-.4176-.11-.1392.1645.5289.5207.4454.74-.4176.8769-.6681.11-.64.11.1949.1644l.9464.0275-.5289.6029c-.4175.5206-.4454.548-.0556.2466.4732-.3563.501-.1644.501,2.85,0,2.9049-.0557,3.2063-.4732,3.0419s-.4176-.11.0557.3836c.501.5481.501.5481-.3062.5755l-.8073.0548.7794.11c.78.11.8073.137.2784.7125-.4454.5207-.4454.5481-.0278.2192.4732-.3562.501-.1918.501,2.302,0,2.3842-.0557,2.6308-.4732,2.4938-.4176-.1644-.4176-.11.0557.3837.501.5481.501.5481-.4454.6029l-.9465.0274.9186.11c.9187.11.9187.137.4454.6577-.4454.4933-.4454.5207-.0278.3563s.4732.137.4732,2.9049-.0557,3.0693-.4732,2.9048-.4176-.11.0557.3837c.501.5481.501.5481-.3062.5755l-.8073.0548.7794.11c.78.11.78.137.3062.6577-.4454.4933-.4454.5207-.0278.3563.4175-.137.4732.11.4732,2.3568s-.0557,2.4938-.4732,2.3568c-.4176-.1645-.4176-.11.0557.3836.501.5481.501.5481-.3062.5755-.6681.0274-.696.0822-.1949.1645.7238.137.8073.3562.2784.8769-.2784.2741-.2506.3015.1392.1644.4732-.1918.501.0548.501,2.8775,0,2.7679-.0557,3.0693-.4732,2.9049s-.4176-.11.0557.3837c.501.5481.501.5481-.4454.6029l-.9465.0274.9186.11c.9187.11.9187.137.4454.6577-.4454.4933-.4454.5207-.0278.3563.4175-.1371.4732.11.4732,2.4938,0,2.4938-.0278,2.6582-.501,2.302-.39-.3015-.3619-.2741.0556.2466l.5289.6029-.8072.0274c-.6681.0274-.696.0822-.1949.1644.7238.137.8073.3563.2784.877-.2784.274-.2506.3014.1392.1644.4732-.1918.501.0822.501,3.0145,0,3.0145-.0278,3.2063-.501,2.85-.39-.3015-.3619-.2741.0556.2466l.5289.6029-.9464.0274c-.863.0548-.8908.0548-.1671.1644.529.0823.7516.2467.64.4933-.0835.2193-.0278.4111.0835.4659a7.4184,7.4184,0,0,1,.39,2.4938c.1114,2.165.0835,2.4116-.334,2.2746-.39-.137-.3619-.11.0278.2192.6681.4933.64.7126-.1392.74l-.6124.0548.6124.11a1.9347,1.9347,0,0,1,.64.1644c0,.0274.3062,1.5073.6681,3.2886.5567,2.85.5846,3.2063.1948,3.0693-.3618-.11-.3618-.0548.0279.2466.2784.1918.5011.4385.5011.5207s-.2227.2192-.5011.274c-.3341.0823-.3062.1371.167.1645.3619,0,.5846.137.5011.274a.2146.2146,0,0,0,.0557.3563,12.8635,12.8635,0,0,1,1.0856,2.6856c.7516,2.3568.8073,2.6309.39,2.96-.39.3015-.3619.3289.1671.1918s.6124-.0822.4453.3289c-.0835.274-.0556.4111.0557.274.1392-.11.8908,1.014,1.67,2.4665.9186,1.7264,1.3083,2.7678,1.1413,2.8774-.1949.1371-.0835.2193.2505.2193.5289.0274.5289.0548-.1113.5481-.3619.3014-.5289.5481-.39.5481a1.0725,1.0725,0,0,0,.5845-.3289c.3619-.3563.3341-.3837,2.6446,2.6582.8629,1.1236,1.1691,1.6991.9464,1.8361s-.1391.2193.1949.2193c.5289,0,.5289,0,0,.5755-.5289.6029-.5289.6029.1392.2466.5289-.274.6959-.274.8908.0274.1392.2193.25.3015.25.2193,0-.11.5289.3288,1.1692.9591.6681.63,1.8094,1.6443,2.561,2.302,1.364,1.151,1.364,1.1784.8351,1.7813s-.5289.6029.0557.11a2.638,2.638,0,0,1,.7516-.4659c.1114,0,.1949.2193.1949.4659,0,.3015.0835.3837.2227.1919.1113-.1919.8908.1644,2.1991.9865,1.1135.7125,1.9208,1.37,1.8373,1.48-.1114.0822.0278.1644.2783.1644.5568,0,.5846.11.1671.9043-.2506.5207-.1949.4933.2783-.0822.5011-.63.5568-.63.7516-.1918.1114.3014.2506.3837.3619.2192.1392-.1918.9743.0274,2.394.63,1.2249.4933,2.4775,1.014,2.7838,1.0962.4454.1644.4732.2467.1391.4659-.3062.2192-.25.2466.2506.11.6124-.1918.64-.137.4732.5755s-.1392.74.1392.2466c.5011-.8221.5011-.8221.9465-.2466.39.4933.4175.4933.2227,0-.1114-.3837-.0557-.4659.2227-.3563.2227.0823,1.364.3563,2.5332.63,1.1691.2466,2.0877.5754,2.0042.7125-.0835.11.0557.137.2784.0548.3062-.11.4454,0,.4732.3288.0279.4933.0557.4933.1671.0274.1392-.4932.167-.4932.6681-.0274.4175.3837.5289.3837.39.0822-.1392-.3562.0557-.3836,1.3083-.2192a26.7244,26.7244,0,0,0,2.9786.2192c1.28.0275,1.4476.0823,1.28.4933-.1392.4111-.1113.4385.1671.1645.5567-.5481.8072-.4111.8072.3836,0,.7125.0279.7125.4176.1919.3619-.4659.39-.2467.4176,2.1923,0,2.5212-.0279,2.6857-.4733,2.3294-.4175-.3014-.39-.274.0279.2466.5289.6029.5289.6029,0,.6029-.5011.0275-.5011.0275-.0279.3015.5011.274.5011.3289,0,.8769-.4454.5207-.4454.5481-.0278.2193.4732-.3563.5011-.1919.5011,2.6856,0,2.0554-.1114,3.0419-.3063,3.0419-.2227,0-.2227.1371.0279.4111.3062.3563.2227.4111-.4454.4385l-.8073.0548.7516.11c.863.137.9465.3289.4176.8769-.2784.3015-.2784.3563,0,.1919s.3619.3836.3619,2.2746c0,1.6716-.1114,2.4938-.3063,2.4938-.2227,0-.2227.137.0279.411.3062.3563.2227.4111-.4454.4385l-.8073.0548.7794.11c.64.11.7238.1919.4454.5207-.2227.2741-.2227.3837,0,.3837.1949,0,.3063.9592.3063,3.0419,0,2.3294-.0836,2.9871-.3619,2.8227-.2506-.1645-.2506-.11.0278.1918.5011.5207.4176.7947-.3062.8221l-.6124.0548.64.11c.5568.11.5846.1918.2784.5755-.2784.3288-.2784.3836-.0278.2192.2783-.137.3619.4111.3619,2.4664,0,2.4664-.0279,2.6308-.5011,2.2746q-.5428-.4523.0835.2466c.4454.5481.4732.6851.1392.877-.3619.2192-.3619.274-.0279.274.3063,0,.2506.137-.1391.6029-.4176.5207-.4454.5481-.0557.2467.4732-.3563.5011-.1645.5011,2.8226,0,2.4938-.0836,3.179-.3619,3.0145-.2227-.137-.2227-.0548.0556.2467.3341.411.2784.4658-.4175.4933l-.8073.0548.7516.11c.863.137.9465.3288.4176.8769-.2784.3015-.2784.3563,0,.1919s.3619.3836.3619,2.2745c0,1.6717-.1114,2.4938-.3063,2.4938-.2227,0-.2227.1371.0279.4111.3062.3563.2227.4111-.4454.4385l-.8073.0548.7516.11c.863.137.9465.3289.4176.877-.2784.3014-.2784.3562,0,.1918s.3619.4933.3619,2.85-.0836,3.0145-.3619,2.85c-.2506-.1644-.2506-.11.0278.1919.5011.5207.4176.7947-.3062.8221l-.6124.0548.64.11c.5568.11.5846.1919.2784.5755-.2784.3289-.2784.3837-.0278.2193.2783-.1371.3619.411.3619,2.439s-.0836,2.6034-.3341,2.439c-.3062-.1644-.3062-.11,0,.1918.5011.5207.4176.7947-.3062.8222l-.6124.0548.64.11c.5568.11.5846.1918.2784.5755-.2784.3288-.2784.3836-.0278.2192.2783-.1644.3619.5207.3619,2.9871s-.0836,3.1515-.3619,2.9871c-.2227-.137-.2227-.0548.0556.2466.3341.4111.3063.4659-.2783.4933-.6681.0548-.6681.0548-.0557.1645.7238.137.8073.3562.2784.8769-.2784.3015-.2784.3563,0,.1918s.3619.4111.3619,2.439-.0836,2.5761-.3619,2.439c-.2227-.137-.2227-.0548.0556.2467.3341.4111.2784.4659-.4175.4933l-.8073.0548.7516.11c.863.137.9465.3289.4176.8769-.2784.3015-.2784.3563,0,.1919s.3619.4933.3619,2.85-.0836,3.0145-.3341,2.85c-.3062-.1644-.3062-.11-.0278.1919.5567.548.4454.7947-.4176.8221l-.7516.0548.7794.11c.64.11.7238.1918.4454.5207-.2227.274-.2227.3837,0,.3837.1949,0,.3063.8221.3063,2.4938,0,1.8909-.0836,2.439-.3619,2.2746s-.2784-.11,0,.1918c.5289.5207.4454.7947-.2784.8221l-.6124.0548.64.11c.5568.11.5846.1918.2784.5755-.2784.3288-.2784.3836-.0278.2192.2783-.137.3619.274.3619,1.7265V630h35.6316v-1.9457c0-1.4525.0836-1.8635.3619-1.7265.2227.137.2227.0548-.0556-.2467-.3341-.411-.3063-.4658.2783-.4932.6681-.0548.6681-.0548.0279-.1645-.696-.137-.78-.3562-.2784-.8769.2784-.3015.2784-.3563,0-.1918-.25.1644-.3341-.3837-.3341-2.2746,0-1.6717.1114-2.4938.3063-2.4938.2227,0,.2227-.1371-.0279-.4111-.3062-.3563-.2227-.4111.4454-.4385l.8073-.0548-.7794-.11c-.8352-.137-.9187-.3289-.4176-.8769.2784-.3015.2784-.3563,0-.1919-.25.1644-.3341-.4933-.3341-2.85s.0836-3.0145.3619-2.85c.2506.1644.2506.11,0-.1919-.5567-.548-.4454-.7947.39-.8221l.7794-.0548-.7794-.11c-.696-.11-.7517-.1919-.4176-.5755.2784-.3289.2784-.3837,0-.2193-.25.1371-.3341-.411-.3341-2.439s.0836-2.6034.3619-2.439c.2506.1645.2506.11,0-.1918q-.7934-.7811.2506-.8221l.64-.0548-.64-.11c-.5568-.11-.5846-.1918-.2784-.5755.2784-.3288.2784-.3836,0-.2192-.25.1644-.3341-.5207-.3341-2.9871s.0836-3.1515.3341-2.9871c.25.137.25.0548-.0278-.2466-.3341-.4111-.3063-.4659.2783-.4933.6681-.0548.6681-.0548.0557-.1644-.7238-.1371-.8073-.3563-.3062-.877.2784-.3014.2784-.3562,0-.1918-.25.1644-.3341-.4111-.3341-2.439s.0836-2.5761.3619-2.439c.2227.137.2227.0548-.0556-.2467-.3341-.411-.3063-.4658.2783-.4933.6681-.0548.6681-.0548.0279-.1644-.696-.137-.78-.3562-.2784-.8769.2784-.3015.2784-.3563,0-.1919-.25.1645-.3341-.4932-.3341-2.85s.0836-3.0145.3341-2.85c.2784.1644.2784.11,0-.1918-.5289-.5481-.4176-.7948.4176-.8222l.7794-.0548-.7794-.11c-.64-.11-.7238-.1918-.4454-.5207.2227-.274.2227-.3837,0-.3837-.1949,0-.3063-.85-.3063-2.5486.0279-2.2746.0557-2.4664.4176-2,.39.5207.4176.5207.4176-.1918,0-.85.167-.9044,3.48-1.151a21.44,21.44,0,0,0,2.7559-.3289c.4176-.11.5011-.0548.3341.3563-.1671.4933-.1392.4933.2227.0274.1948-.2467.4454-.4659.5567-.4659.0835,0,.1949.2192.1949.4659.0278.4385.0556.4385.167,0,.0835-.3015.3062-.4385.5289-.3563s.3619.0548.25-.0822c-.0835-.137.7516-.4659,1.8651-.74,2.6446-.6029,3.6467-.6851,3.8972-.3015.1392.2193.2227.1645.2227-.1644,0-.3837.1392-.4659.6125-.3288.501.137.5289.11.2227-.11-.3341-.2192-.3063-.3014.1391-.4658.3063-.11,1.5311-.6029,2.7559-1.0962a9.0928,9.0928,0,0,1,2.394-.7948c.1392.0823.3062-.0274.39-.1918.0835-.2466.2783-.1918.5845.1918.4733.5481.4733.5481.2784-.0822-.1392-.4384-.0557-.6029.25-.6029.2506,0,.4176-.11.39-.2466-.0557-.137.7794-.8222,1.8651-1.5073,1.364-.85,2.0042-1.1236,2.1434-.9043s.2227.1644.2227-.1644c0-.5481.3062-.6029.8352-.1371.334.3015.334.2741.0556-.11-.3062-.3836-.0278-.7673,2.0878-2.7678,1.9765-1.891,2.4775-2.2472,2.6446-1.891.1391.3837.1948.3563.1948-.1644.0279-.6851.2784-.7673.863-.274.2227.1918.167.0822-.1114-.2741-.5289-.6029-.5289-.6029.1392-.6029.4176,0,.5568-.0822.3341-.2192-.2506-.1644.0835-.7947,1.1413-2.165a7.4506,7.4506,0,0,1,1.6424-1.8361c.0557.0822.1948-.1918.3062-.5755a.9292.9292,0,0,1,.6681-.7125c.2505,0,.334-.0822.1392-.137-.2227-.11.1948-1.151,1.2248-3.0693.863-1.6169,1.5867-2.96,1.6424-3.0145.0279-.0548.3619.0274.7238.1918l.64.3289-.64-.4659c-.5846-.4385-.5846-.4659-.1392-.85.2784-.2192.334-.3288.1392-.2192-.4733.2466-.4454.0548.4454-2.5486.4454-1.2332.8908-2.165,1.0021-2.0554s.1114-.0274,0-.3014c-.167-.4659-.1113-.4933.6124-.3289.7795.1645.7795.1645.1671-.1918-.5011-.274-.5568-.4111-.2784-.7125.3062-.3015.2784-.3289-.0278-.1644s-.3619.0822-.2227-.4385c.1113-.3563.4175-1.7265.668-3.0693a6.4467,6.4467,0,0,1,.7238-2.3842c.1114,0,.1392-.137.0279-.3015a.4639.4639,0,0,1,.1948-.5481c.3341-.1918.3341-.2466,0-.2466-.3062,0-.25-.137.1392-.6029.5289-.6029.5289-.6029,0-.2192s-.5289.3562-.3619-.9318a21.83,21.83,0,0,0,.1949-2.7131c0-1.2606.0278-1.3154.501-.9865.39.3014.3619.274-.0556-.2467-.5289-.6029-.5289-.6029.1392-.63.501-.0274.5567-.0548.167-.1644-.3062-.0822-.4454-.3014-.3619-.5207s.0278-.3836-.1113-.3836c-.3341,0-.39-6.0016-.0557-6.4675a1.5017,1.5017,0,0,1,.8908-.4659c.6959-.11.6959-.11-.0835-.1644-.8073-.0274-.9465-.2741-.39-.8222.2784-.274.2506-.3014-.1392-.1644-.4453.1918-.501-.0548-.501-2.4664,0-2.4938.0278-2.6582.4732-2.302.4176.3015.39.2741-.0278-.2466l-.5289-.6029.8072-.0274c.696-.0548.7238-.0548.1671-.1644-.4176-.0823-.6124-.2741-.5011-.5207.0835-.2193.0278-.3837-.1113-.3837-.1671,0-.2784-1.3154-.2784-3.1789,0-2.9871.0278-3.179.4732-2.8227.4176.3015.39.274-.0278-.2466l-.5289-.6029.9464-.0274c.8352-.0549.863-.0549.1671-.1645-.8352-.137-.9187-.3562-.4176-.8769.3062-.2741.2784-.3015-.1392-.1644-.4175.1918-.4732-.0549-.4732-2.4665,0-2.4938.0278-2.6582.4732-2.3019.4176.3014.39.274-.0278-.2467l-.5289-.6029.8072-.0274c.6681-.0274.696-.0822.1671-.1644-.696-.137-.7795-.3563-.2506-.877.2784-.274.2506-.3014-.167-.1644-.4454.1918-.4732-.0822-.4732-3.0145,0-3.0145.0278-3.2063.4732-2.85.4176.3015.39.2741-.0278-.2466l-.5289-.6029.9464-.0274c.8352-.0548.863-.0548.1671-.1644-.8352-.1371-.9187-.3563-.39-.877.2784-.274.2506-.3014-.167-.1644-.4175.1918-.4732-.0548-.4732-2.4664,0-2.4938.0278-2.6583.4732-2.302.4176.3015.39.274-.0278-.2466l-.5289-.6029.8072-.0274c.6681-.0274.696-.0823.1671-.1645-.696-.137-.7795-.3562-.2784-.8769.3062-.2741.2784-.3015-.1392-.1644-.4454.1918-.4732-.0823-.4732-3.0145,0-3.0145.0278-3.2064.4732-2.85.4176.3014.39.274-.0278-.2467l-.5289-.6029.9464-.0274c.8352-.0548.863-.0548.1949-.1644-.863-.137-.9465-.3563-.4454-.8769.3062-.2741.2784-.3015-.1392-.1645-.4175.1919-.4732-.0548-.4732-2.4664,0-2.4938.0278-2.6582.501-2.302.39.3015.3619.2741-.0556-.2466l-.5289-.6029.8072-.0274c.6681-.0274.696-.0822.1671-.1644-.696-.1371-.7795-.3563-.2506-.877.2784-.274.2506-.3014-.167-.1644-.4454.1918-.4732-.0548-.4732-2.8775,0-2.7678.0557-3.0693.4732-2.9049s.4176.11-.0557-.3836c-.501-.5481-.501-.5481.4454-.6029l.9465-.0274-.9186-.11c-.9187-.11-.9187-.137-.4454-.6577.4454-.4932.4454-.5207.0278-.3562-.4175.137-.4732-.11-.4732-2.4938,0-2.4939.0278-2.6583.501-2.302.39.3014.3619.274-.0556-.2467l-.5289-.6029.8072-.0274.8073-.0548-.7794-.11c-.78-.11-.78-.137-.3062-.6577.4175-.4659.4454-.5207.0556-.3837-.4175.1645-.4732-.1644-.5567-2.713-.0557-2.439-.0278-2.9049.3341-2.9049.3062-.0274.2783-.0822-.1114-.3015-.4176-.2466-.4454-.3562-.1392-.548s.3062-.2467.0279-.2467c-.2506,0-.3063-.2192-.2227-.63.0835-.3288.0835-.4385,0-.2192-.1114.2466-.5846-.4385-1.2249-1.7813a9.5809,9.5809,0,0,1-.9465-2.3568c.0836-.137-.0835-.2193-.334-.2193-.4454,0-.4454-.0548.0557-.63.2783-.3288.334-.4384.1113-.2466-.5289.4659-.8351.4111-.8629-.1644,0-.2741-.0835-.3289-.1671-.11q-.1252.37-1.1691-.5755a21.268,21.268,0,0,0-2.6167-1.8635c-1.28-.74-1.5589-1.0414-1.4476-1.48.1392-.4111.0557-.3837-.2505.137-.3619.63-.4176.63-.6124.1919-.1114-.3289-.25-.4111-.3619-.2193-.1392.1919-.5011.2193-1.1413.0274a9.6953,9.6953,0,0,0-2.31-.274c-1.0022,0-1.2805-.0822-1.1413-.3563.1391-.2192.0556-.2192-.2506.0548-.4175.3289-.4732.3015-.5011-.137-.0278-.4933-.0556-.4933-.167-.0274-.0835.3015-.3062.4385-.5289.3563s-.39-.0548-.39.0822-.5289.3562-1.197.5207a15.0253,15.0253,0,0,0-2.5332.9865,3.6142,3.6142,0,0,1-1.6146.5481c-.1113-.0822-.2227,0-.2227.1919s-.334.0548-.7237-.3289l-.7516-.6577.4732.74c.5011.74.5011.74-.6959,2a20.82,20.82,0,0,0-1.9208,2.302c-.4176.6029-.863.9866-1.0857.9044-.25-.0822-.3062,0-.167.2192a.4185.4185,0,0,1-.167.5755c-.2227.137-.25.2467-.0835.2467.2227,0,.1392.6029-.1949,1.8361a12.7767,12.7767,0,0,0-.5289,2.7678c0,.7673-.0835.9044-.5011.74-.39-.137-.4175-.11-.1113.1645.5289.5481.39.7947-.4454.8221-.7516.0548-.7516.0548-.0557.1644a1.5017,1.5017,0,0,1,.8908.4659,11.9723,11.9723,0,0,1,.2227,2.8775c0,2.3294-.0557,2.5486-.5011,2.3568-.39-.137-.4175-.11-.1113.1644.5011.5207.4176.74-.3062.877-.5011.0822-.4732.137.1949.1644l.8072.0274-.5289.6029c-.4175.5207-.4454.5481-.0278.2466.4454-.3562.4732-.1644.4732,2.85,0,2.9323-.0278,3.2063-.4732,3.0145-.4176-.137-.4454-.11-.1392.1644.5011.5207.4176.7948-.3062.8222-.5568.0274-.5568.0548-.0557.1644.863.2192.9743.5755.9743,3.3433,0,2.3294-.0557,2.5487-.4732,2.3568-.4176-.137-.4454-.11-.167.1645.5289.5207.4454.74-.2784.8769-.5011.0822-.4732.137.1949.1644l.8072.0274-.5289.6029c-.4175.5207-.4454.5481-.0557.2467.4733-.3563.5011-.1644.5011,2.85,0,2.9322-.0278,3.2063-.4732,3.0145-.4176-.1371-.4454-.11-.1392.1644.5011.5207.4176.7947-.3062.8221-.5568.0274-.5568.0548-.0557.1645.863.2192.9743.5754.9743,3.3433,0,2.3294-.0557,2.5486-.4732,2.3568-.4176-.137-.4454-.11-.1392.1644.5011.5207.4176.74-.3062.877-.5011.0822-.4732.137.1949.1644l.8072.0274-.5289.6029c-.4175.5207-.4454.5481-.0557.2466.4733-.3562.5011-.1644.5011,2.85,0,2.9323-.0278,3.2064-.4732,3.0145-.4176-.137-.4454-.11-.167.1645.501.4932.4454.7947-.1392.8221-.3619,0-.39.0548-.0557.1644.7238.2741.8351.6851.8351,3.3434,0,2.3294-.0557,2.5486-.4732,2.3568-.4176-.1371-.4454-.11-.1392.1644.5011.5207.4176.7947-.3062.8221l-.6124.0548.6124.11c.7238.137.8073.3562.2784.8769-.2784.274-.2227.3015.1948.137.4733-.1918.5011-.11.3619.7125a19.6188,19.6188,0,0,0-.1949,3.0694c0,1.6442-.0835,2.1375-.3618,1.9731-.2506-.1644-.2506-.11,0,.1918.5289.5207.4454.7947-.2784.8221-.6124.0549-.6124.0549.0278.1645.64.137.64.137.1392.7125s-.4732.5755.0279.1918.501-.3014.3062,2.1924a7.2307,7.2307,0,0,1-.4733,2.6856c-.1392.0548-.1113.2741.0835.4933.2506.3015.1671.3837-.4732.4111-.6681.0274-.6959.0548-.1949.1644.7238.137.8073.3563.2784.877-.2784.274-.25.3014.0835.1644.3619-.137.39.2466.1671,2.8775s-.3063,3.0145-.696,2.8774c-.3619-.137-.39-.11-.0835.1645.4732.4933.4176.7947-.167.8221-.4176.0274-.4176.0548.0278.1644.5011.1371.5011.1645.0279.6577-.39.4385-.4176.5207-.0836.3837.39-.137.39.11.0279,2.3294-.3619,2.0827-.5011,2.4664-.863,2.3294s-.39-.11-.0835.1644c.5846.6029.3619.85-.5846.6851-.8072-.1644-.8351-.137-.1948.11.9743.4111,1.0021.4933.39.9592-.4732.3563-.4732.3837-.0278.2466.5845-.2192.5567.0549-.5568,3.5626-.7794,2.4116-1.1692,2.9871-1.9486,2.74-.4454-.1644-.4176-.137.0557.2466s.5011.4933.1392.74c-.2506.1644-.2784.274-.0835.274.4175,0-1.1135,2.6857-2.3105,4.0559l-.863.9865-.8073-.4932-.8073-.5207.6681.74.6681.7125h-.6681c-.4454,0-.5567.0822-.3062.2193.2506.1644.1949.3836-.2783.7947a16.959,16.959,0,0,1-4.7324,2.3842c-.64.137-.7516.0822-.6124-.3015.1392-.4658.1392-.4658-.167-.0274-.4176.6577-.7795.6029-.9186-.137-.1114-.4933-.1114-.4659-.1671.1644-.0556,1.3429-.5846.4933-.5846-.9317,0-1.014.0836-1.3154.3619-1.1784.2506.1644.2506.11,0-.1919-.5567-.548-.4454-.7947.39-.8221l.7794-.0548-.7794-.11c-.64-.11-.7238-.1918-.4454-.5207.2227-.274.2227-.3837,0-.3837-.1949,0-.3063-.9865-.3063-3.0419,0-2.8775.0279-3.0419.5011-2.6856.4176.3288.4176.3014-.0278-.2193-.5011-.548-.5011-.6029,0-.8769.4732-.274.4732-.274-.0279-.3015-.5289,0-.5289,0,0-.6029.4176-.5206.4454-.548.0279-.2466-.4454.3563-.4733.1918-.4733-2.302s.0279-2.6582.4733-2.302c.4175.3015.39.2741-.0279-.2466-.5289-.6029-.5289-.6029,0-.63.4733-.0274.4733-.0548.0279-.1644-.5568-.1371-.6124-.3837-.1392-.877.2784-.3014.2784-.3562,0-.1918-.25.1644-.3341-.4933-.3341-2.8227,0-2.0827.1114-3.0419.3063-3.0419.2227,0,.2227-.137-.0279-.4111-.3062-.3562-.1948-.411.5846-.4658l.9465-.0274-.9187-.11c-.9743-.137-1.0856-.3288-.5567-.8769.3062-.3015.2784-.3289,0-.1644-.3062.1644-.3619-.3289-.3062-2.6309.0835-2.7952.0835-2.85.7794-3.0145l.7238-.1918-.8073-.0274c-.6681-.0274-.7516-.0822-.4454-.4385.2506-.274.2506-.411.0279-.411-.1949,0-.3063-.9592-.3063-3.042,0-2.3293.0836-2.987.3341-2.8226.2784.1644.2784.11.0278-.1919q-.7934-.7809.2506-.8221l.64-.0548-.64-.11c-.5568-.11-.5846-.1918-.2784-.5755.2784-.3289.2784-.3837,0-.2192-.25.137-.3341-.4111-.3341-2.4665,0-2.4664.0279-2.6308.4733-2.2745.4732.3562.4732.3562.0278-.1919-.39-.4384-.4175-.63-.167-.8769s.25-.3289-.0557-.3289c-.25,0-.2227-.1644.167-.6029.4176-.5207.4454-.5481.0279-.2466-.4454.3562-.4733.1644-.4733-2.8227,0-2.4938.0836-3.1789.3619-3.0145.2227.137.2227.0548-.0556-.2466-.3341-.4111-.3063-.4659.2783-.4933.6681-.0548.6681-.0548.0279-.1644-.696-.1371-.78-.3563-.2784-.877.2784-.3014.2784-.3562,0-.1918-.25.1644-.3341-.3837-.3341-2.2746,0-1.6717.1114-2.4938.3063-2.4938.2227,0,.2227-.137-.0279-.4111-.3062-.3562-.1948-.411.5846-.4658l.9465-.0275-.9187-.11c-.9743-.137-1.0856-.3288-.5567-.8769.2784-.3015.2784-.3563,0-.1918-.25.1644-.3341-.4933-.3341-2.85s.0836-3.0145.3341-2.85c.2784.1644.2784.11,0-.1918-.5289-.5481-.4176-.7948.4176-.8222l.7794-.0548-.7794-.11c-.696-.11-.7517-.1918-.4176-.5755.2784-.3288.2784-.3837.0278-.2192-.2783.137-.3619-.4111-.3619-2.439s.0836-2.6035.3341-2.439c.2784.1644.2784.11,0-.1919-.5011-.5207-.4176-.7947.2784-.8221l.64-.0548-.64-.11c-.5568-.11-.5846-.1919-.2784-.5755.2784-.3289.2784-.3837,0-.2193-.25.1645-.3341-.5207-.3341-2.9871s.0836-3.1515.3341-2.9871c.25.1371.25.0549-.0278-.2466-.3341-.4111-.3063-.4659.2783-.4933.6681-.0548.6681-.0548.0279-.1644-.696-.137-.78-.3563-.2784-.877.2784-.3014.2784-.3562,0-.1918-.25.1644-.3341-.4111-.3341-2.439s.0836-2.576.3341-2.439.25.0548-.0278-.2466c-.3341-.4111-.3063-.4659.2783-.4933.6681-.0548.6681-.0548.0279-.1644-.696-.1371-.78-.3563-.2784-.877.2784-.3014.2784-.3563,0-.1918-.25.1644-.3341-.4933-.3341-2.85s.0836-3.0145.3341-2.85c.2784.1645.2784.11,0-.1918-.5289-.5481-.4176-.7947.4176-.8221l.7794-.0549-.7794-.11c-.64-.11-.7238-.1918-.4454-.5207.2227-.274.2227-.3836,0-.3836-.1949,0-.3063-.8222-.3063-2.4938,0-1.8909.0836-2.439.3341-2.2746.2784.1644.2784.11,0-.1918-.5289-.5481-.4176-.7948.4176-.8222l.7794-.0548-.7794-.11c-.696-.11-.7517-.1918-.4176-.5755.2784-.3289.2784-.3837,0-.2192-.25.1644-.3341-.5207-.3341-3.0145,0-2.9871.0279-3.179.4733-2.8227.4175.3014.39.274-.0279-.2467-.39-.4658-.4454-.6029-.1391-.6029.334,0,.334-.0548-.0279-.274-.334-.1918-.3062-.3289.1392-.8769.4176-.4659.4454-.5481.0557-.2467-.4454.3563-.4733.1918-.4733-2.2746,0-2.0553.0836-2.6034.3341-2.4664s.25.0548-.0278-.2466c-.3341-.4111-.3063-.4659.2783-.4933.6681-.0548.6681-.0548.0279-.1644-.696-.137-.78-.3563-.2784-.877.2784-.3014.2784-.3562,0-.1918-.25.1644-.3341-.4933-.3341-2.8227,0-2.0827.1114-3.0419.3063-3.0419.2227,0,.2227-.137-.0279-.411-.3062-.3563-.2227-.4111.4454-.4385l.8073-.0274-.7238-.1919c-.6959-.1644-.6959-.2192-.7794-3.0145-.0557-2.3019,0-2.7952.3062-2.6308.2784.1644.3062.137,0-.1644-.5289-.5481-.4176-.7948.4176-.8222l.7794-.0548-.7794-.11c-.64-.11-.7238-.1918-.4454-.5207.2227-.274.2227-.3836,0-.3836-.1949,0-.3063-.9866-.3063-3.0419,0-2.8775.0279-3.0419.4733-2.6857.4732.3563.4732.3563,0-.1918a2.5811,2.5811,0,0,1-.4733-.74c0-.11.2227-.2193.4733-.2193.4454-.0274.4454-.0548,0-.1644-.5011-.137-.5011-.137,0-.7125.4454-.5207.4454-.5481,0-.2193-.4454.3563-.4733.1919-.4733-2.3019s.0279-2.6583.4733-2.302c.4175.3014.39.274-.0279-.2467-.39-.4658-.4454-.6029-.1391-.6029.334,0,.334-.0548-.0279-.274-.334-.1918-.3062-.3289.1392-.877.4176-.4658.4454-.5481.0557-.2466-.4454.3563-.4733.1918-.4733-2.6856,0-2.0554.1114-3.042.3063-3.042.2227,0,.2227-.137-.0279-.411-.3062-.3563-.1948-.4111.5846-.4659l.9465-.0274-.9187-.11c-.9743-.137-1.0856-.3289-.5567-.877.3062-.3014.2784-.3288,0-.1644-.3062.1644-.3619-.3289-.3062-2.6308.0835-2.7953.0835-2.85.7794-3.0145l.7238-.1919-.8073-.0274c-.6681-.0274-.7516-.0822-.4454-.4384.2506-.2741.2506-.4111.0279-.4111-.1949,0-.3063-.9592-.3063-3.0419,0-2.3294.0836-2.9871.3341-2.8227.2784.1644.2784.11,0-.1918-.5011-.5207-.4176-.7948.2784-.8222l.64-.0548-.64-.11c-.5568-.11-.5846-.1918-.2784-.5755.2784-.3288.2784-.3836,0-.2192-.25.137-.3341-.4111-.3341-2.4664,0-2.4664.0279-2.6309.4733-2.2746.4732.3563.4732.3563.0278-.1918-.39-.4385-.4175-.63-.167-.877s.25-.3288-.0557-.3288c-.25,0-.2227-.1645.167-.6029.4176-.5207.4454-.5481.0279-.2467-.4454.3563-.4733.1644-.4733-2.8226,0-2.4939.0836-3.179.3341-3.0146.25.1371.25.0549-.0278-.2466-.3341-.4111-.3063-.4659.2783-.4933.6681-.0548.6681-.0548.0279-.1644-.696-.137-.78-.3563-.2784-.8769.2784-.3015.2784-.3563,0-.1919-.25.1644-.3341-.3836-.3341-2.2746,0-1.6716.1114-2.4938.3063-2.4938.2227,0,.2227-.137-.0279-.411-.3062-.3563-.1948-.4111.5846-.4659l.9465-.0274-.9187-.11c-.9743-.1371-1.0856-.3289-.5567-.877.2784-.3014.2784-.3562,0-.1918-.25.1644-.3341-.4933-.3341-2.85s.0836-3.0145.3341-2.85c.2784.1645.2784.11,0-.1918-.5289-.5755-.39-.7947.5567-.8495l.9187-.0274-.9187-.11c-.8072-.11-.8908-.1644-.5567-.5755.25-.3014.2784-.3836,0-.2192-.25.137-.3341-.4111-.3341-2.439s.0836-2.6034.3341-2.439c.2784.1644.2784.11,0-.1918-.5011-.5207-.4176-.7948.2784-.8222l.64-.0548-.64-.11c-.5568-.11-.5846-.1918-.2784-.5755.2784-.3289.2784-.3837,0-.2192-.25.1644-.3341-.5207-.3341-2.9871s.0836-3.1516.3341-2.9871c.25.137.25.0548-.0278-.2467-.3341-.411-.3063-.4658.1391-.4933.4733-.0274.4733-.0548.0279-.1644-.5568-.137-.6124-.3836-.1392-.8769.2784-.3015.2784-.3563,0-.1919-.25.1645-.3341-.411-.3341-2.439s.0836-2.576.3341-2.439.25.0548-.0278-.2466c-.3341-.4111-.3063-.4659.2783-.4933.6681-.0548.6681-.0548.0279-.1644-.696-.137-.78-.3563-.2784-.877.2784-.3014.2784-.3562,0-.1918-.25.1644-.3341-.4933-.3341-2.85s.0836-3.0145.3341-2.85c.2784.1644.2784.11,0-.1919-.5289-.5481-.4176-.7947.4176-.8221l.7794-.0548-.7794-.11c-.64-.11-.7238-.1919-.4454-.5207.2227-.2741.2227-.3837,0-.3837-.1949,0-.3063-.8221-.3063-2.4938,0-1.8909.0836-2.439.3341-2.2746.2784.1644.2784.11,0-.1918-.5289-.5481-.4176-.7947.4176-.8222l.7794-.0548-.7794-.11c-.696-.11-.7517-.1918-.4176-.5755.2784-.3288.2784-.3836,0-.2192-.25.1644-.3341-.5207-.3341-3.0145,0-2.9871.0279-3.1789.4733-2.8227.4175.3015.39.2741-.0279-.2466-.39-.4385-.4175-.6029-.167-.6029.3062,0,.3062-.0822.0557-.3289s-.2227-.4385.167-.8769c.4176-.4933.4176-.5207,0-.2193-.4175.3289-.4732.1645-.5567-2.1375-.0557-2.0554-.0279-2.439.3062-2.3294.2784.11.2505-.0274-.1114-.4111-.501-.5481-.501-.5481.1671-.5755l.668-.0274-.6959-.2192c-.39-.11-.5846-.2467-.4175-.2467q.2505-.0411,0-.2466a3.6009,3.6009,0,0,1-.6681-1.3976,23.6737,23.6737,0,0,0-1.3084-3.1241,13.446,13.446,0,0,1-.9743-2.3568c0-.2467-.0835-.3015-.1392-.11-.0835.1919-1.0021-.5206-2.1156-1.6168-1.7816-1.7539-1.9486-2.0006-1.6424-2.5212l.334-.5755-.501.5755-.4733.548-1.3362-.63a22.3021,22.3021,0,0,0-3.0064-1.0687c-1.42-.4111-1.6145-.5207-1.3083-.877.2783-.3562.2505-.3836-.2784-.11-.8351.4385-.863.4385-.7516-.4385C228.6188,280.7837,228.48,280.9481,228.1734,281.9347Z"/><path d="M214.3383,284.2915c.0835.2466.2227.3837.2784.3014.0835-.0822.0557-.2466-.0557-.411C214.3105,283.7434,214.1435,283.8256,214.3383,284.2915Z"/><path d="M184.7473,363.4085c-.2783.274-.4454.548-.3619.6029.0836.0822.3062-.1371.5011-.4659C185.2484,362.97,185.2206,362.97,184.7473,363.4085Z"/><path d="M164.0364,365.9571a1.2045,1.2045,0,0,0,.6681.4111c.167,0,.0557-.1919-.2227-.4111C163.7859,365.4364,163.591,365.4364,164.0364,365.9571Z"/><path d="M261.7452,440.0864a.261.261,0,0,0-.2784.2741.2767.2767,0,0,0,.2784.274.2971.2971,0,0,0,.2784-.274A.2769.2769,0,0,0,261.7452,440.0864Z"/><path d="M199.8908,499.8283a2.1224,2.1224,0,0,0-.64.5481c-.2783.3015-.4454.5481-.3618.5481a2.1209,2.1209,0,0,0,.64-.5481C199.8073,500.075,199.9743,499.8283,199.8908,499.8283Z"/><path d="M280.9251,555.46c-.39,0-.3063.1918.1948.3837.2227.0822.3341.0548.2505-.11A.53.53,0,0,0,280.9251,555.46Z"/></svg>