<svg id="Ebene_1" data-name="Ebene 1" xmlns="http://www.w3.org/2000/svg" viewBox="0 0 450 120"><defs><style>.cls-1{fill:#fff;}.cls-1,.cls-2{stroke:#000;stroke-miterlimit:10;stroke-width:6px;}.cls-2{fill:none;}</style></defs><title>Zeichenfläche 5</title><line class="cls-1" x1="20" y1="10" x2="20" y2="110"/><line class="cls-1" x1="30" y1="10" x2="30" y2="110"/><path class="cls-2" d="M50,10A20,20,0,0,1,70,30"/><path class="cls-2" d="M70,90a20,20,0,0,1-20,20"/><line class="cls-1" x1="10" y1="10" x2="50" y2="10"/><line class="cls-1" x1="10" y1="110" x2="50" y2="110"/><line class="cls-1" x1="70" y1="30" x2="70" y2="90"/><path class="cls-2" d="M139,10V90a20,20,0,0,1-20,20h-9A20,20,0,0,1,90,90V10"/><polyline class="cls-2" points="80 10 100 10 100 110"/><line class="cls-1" x1="160" y1="10" x2="160" y2="110"/><line class="cls-1" x1="170" y1="10" x2="170" y2="110"/><polyline class="cls-2" points="220 110 220 10 200 30 180 10 150 10"/><path class="cls-2" d="M289,50V90a20,20,0,0,1-20,20h-9a20,20,0,0,1-20-20V50"/><path class="cls-2" d="M240,70V30a20,20,0,0,1,20-20h9a20,20,0,0,1,20,20V70"/><line class="cls-2" x1="250" y1="110" x2="250" y2="10"/><line class="cls-1" x1="310" y1="10" x2="310" y2="110"/><line class="cls-1" x1="320" y1="10" x2="320" y2="110"/><polyline class="cls-2" points="370 50 330 10 300 10"/><line class="cls-2" x1="370" y1="10" x2="370" y2="110"/><path class="cls-2" d="M439,50V90a20,20,0,0,1-20,20h-9a20,20,0,0,1-20-20V50"/><path class="cls-2" d="M390,70V30a20,20,0,0,1,20-20h9a20,20,0,0,1,20,20V70"/><line class="cls-2" x1="400" y1="110" x2="400" y2="10"/></svg>