<svg id="Ebene_1" data-name="Ebene 1" xmlns="http://www.w3.org/2000/svg" viewBox="0 0 600 600"><title>Zeichenfläche 9</title><path d="M11.2013,530.4431c6.4122,28.7,27.2033,51.7,52.7549,58.5,23.1228,6.1,52.5606-3.4,66.4537-21.4,14.9618-19.4,17.0992-45.3,5.635-69.2-6.6065-13.9-16.322-23-29.2435-27.5-8.8411-3.1-22.2484-2.6-30.3122,1.2-6.8008,3.3-15.059,11.1-18.3622,17.5-9.1326,17.3-6.898,35.4,5.6349,47.2,7.2866,6.9,12.9216,9.4,22.0541,9.9,6.6065.4,8.161.1,12.8244-2.3a30.1558,30.1558,0,0,0,13.6016-14.8c2.1374-5.3,1.846-8.4-.9715-10.3-3.2061-2.2-6.7037-.7-9.0354,3.7-6.315,11.9-13.31,14.5-24.0943,8.9-9.7155-4.9-14.8646-14.1-13.6988-24.2a30.7853,30.7853,0,0,1,15.6419-23.6c4.2748-2.3,6.1207-2.7,13.213-2.7s9.0354.4,13.7959,2.8c6.6065,3.3,15.059,12.4,18.6537,19.9,7.0923,15.1,7.2866,34.3.4858,48-7.87,15.9-30.7008,28-49.84,26.5-31.1866-2.4-54.9894-31.9-54.9894-68.2,0-35.4,17.6821-63.1,46.537-72.9,39.93-13.7,84.6216,6,103.761,45.7a125.5915,125.5915,0,0,1,10.1041,33.2c1.4573,8.7,1.8459,50.7.5829,58.6l-.7772,4.6-3.5948-1.3c-19.9166-7.3-38.7646,13.6-29.9236,33.2,5.4407,12.1,19.0423,17.1,19.82,7.3.2914-3.1-.1943-4-4.5663-7.7-5.4407-4.7-6.7037-8.3-4.9549-13.7,1.6516-5.1,5.1492-7.5,11.0756-7.5,5.8293,0,10.4927,2.5,12.7273,6.9a31.5637,31.5637,0,0,1,2.526,18.8c-1.8459,10.4-5.7321,16.6-22.1512,35.3-32.1582,36.7-37.4045,44.2-43.3309,62-8.9383,26.8-3.4005,53.7,16.8077,83.2,6.7036,9.7,19.2366,23.2,40.7077,43.8,20.111,19.2,33.4212,37.6,45.3712,62.5,11.8528,24.7,18.848,53.2,18.848,77.6v6.7l-6.6065,5.8c-3.5948,3.1-9.1326,8.3-12.2415,11.3-3.4,3.3-5.4407,4.8-5.0521,3.6,4.0805-11.8,4.372-46.6.583-64.8-8.9382-43.3-31.2838-82.3-67.4253-117.8q-63.3933-61.95-34.004-121.4c4.6634-9.3,10.104-17.1,20.2081-28.5,10.2984-11.7,13.31-17.7,13.31-26.5,0-12.9-6.6065-21.1-19.9167-24.6-14.0874-3.6-28.4663,10.2-24.9687,23.9a21.6343,21.6343,0,0,0,9.3268,12.9c4.5663,2.7,7.9667,2.9,12.9216.8,7.2866-3.2,9.6183-7.6,6.4122-12.3-1.846-2.8-4.5663-2.8-8.9382,0l-3.4,2.1-2.3317-2.7c-3.1089-3.7-2.9146-7.9.3887-10.6,2.2345-1.8,3.5947-2.1,7.4809-1.7,3.9833.4,5.3434,1.1,8.0638,4.1s3.2061,4.3,3.2061,8.3c0,6-1.36,8.3-11.4643,19.6-22.54,25.4-32.2553,49.6-30.9922,77.2.7772,15.8,3.5947,26.7,10.8813,41.5,7.87,16.1,16.8077,27.8,36.3357,47.7,9.1326,9.4,12.4358,13.3,10.7842,12.9-6.1207-1.7-21.0825-1.8-27.9805-.2-17.2935,3.7-31.9638,15.1-39.25,30.2-3.5947,7.5-3.9834,9.2-4.4691,17.7-.583,11.4.68,17.4,5.7321,28.2,6.7036,14.2,16.6134,23.3,29.8264,27.5,7.3838,2.4,19.2366,2.6,24.9687.5a28.88,28.88,0,0,1,4.7606-1.5c.4858,0-5.052,6.2-12.1443,13.8-7.1894,7.5-16.4191,17.9-20.5968,23-6.1207,7.6-7.4809,9.9-7.4809,12.7,0,3.9,2.6232,6,6.3151,5.1,1.263-.3,7.1894-6.3,13.213-13.3,16.0305-18.6,29.9236-33.1,43.1366-45.2,13.31-12.1,27.9805-24.1,29.4378-24.1.5829,0,1.36,1,1.7488,2.2.5829,1.9-.3886,3.2-6.0236,8.2-12.2415,10.9-46.537,46.9-56.7382,59.6-16.8078,20.8-29.9236,39.6-30.7009,43.7-1.1658,6.5,2.8175,9.2,7.7724,5.2,1.4573-1.2,7.1894-8.3,12.63-15.8,20.9854-28.5,42.1651-52.8,65.0935-74.3,11.8529-11.1,13.1159-11.7,13.213-5.7,0,1.6-1.263,3.7-3.4975,6-7.2866,7.1-31.4781,33.9-38.7647,43a622.8468,622.8468,0,0,0-49.7431,72.4c-7.578,13-8.7439,16.7-6.7037,20,3.6919,5.8,7.5781,2.5,17.8765-15,14.1845-24.2,31.478-49.5,47.3142-69,8.7439-10.9,34.587-39.5,35.5586-39.5.4858,0,.8744,2.4.8744,5.2-.0972,5.2-.1943,5.5-7.8695,14.3-36.2387,41.7-68.7854,94.6-90.1594,146.5-5.635,13.7-6.4122,18.4-3.4976,20.6,4.7606,3.6,7.9667.1,14.67-16.3,18.1679-44.4,46.2456-91.7,76.9464-129.8,9.8126-12.1,9.23-11.7,8.4525-6.5-2.5261,16-10.4927,35.2-20.2082,48.3-31.6724,42.7-57.1268,98.7-67.2309,148-5.5378,26.8-7.6752,54.7-6.2179,79,1.1659,18.6.7772,17.7,7.2866,17.7h5.4406l-.5829-3.2c-1.36-7-1.8459-46.1-.68-56.7,4.5663-41.3,15.4476-78.8,34.0041-117,18.0708-37.2,38.1817-66.3,65.6765-94.7,13.213-13.7,20.9853-20.5,38.8618-34.6,60.5272-47.7,94.6285-81.7,119.1114-118.8,2.3317-3.6,7.2866-12.6,10.8813-20,3.6919-7.4,6.4122-12.4,6.0236-11-1.4573,5.3-10.3955,22.9-16.8077,33-20.9854,33.1-52.172,65.5-104.15,108.3-21.374,17.6-33.6154,29.2-45.6626,43.2-52.8521,61.5-85.01,134.7-92.3939,210.3-1.1659,12.2-.68,44.6.8743,55.7l.68,5,6.2179.3,6.2179.3-.68-3.8c-.2914-2.1-1.0687-10.5-1.7488-18.7-2.4288-32.4,3.4-74.2,15.5448-110.6,22.4427-67.5,61.2073-124.7,113.8651-168.3,61.4016-50.8,92.0053-83,114.2537-119.9,9.5211-15.8,20.5-42.6,20.8882-51.1.0971-1.6.2914-1.7.5829-.5.5829,2.3-3.789,18.7-7.4809,27.8-16.4191,40.9-48.48,79.7-109.6874,132.5-19.5281,16.9-28.3692,25.5-40.4163,39.5-61.79,71.8-96.5716,165.4-91.7139,246.5.4858,8.2,1.36,17.4,1.846,20.4.5829,3,.9715,5.6.9715,5.8s2.72.3,5.9264.3h6.0236l-.68-4.3c-3.3032-23.2-3.1089-55.5.3887-78.1,10.104-66,42.2622-133,89.0906-185.8,10.8813-12.3,21.2769-22.3,37.7931-36.3,73.3517-62.5,112.4078-116.8,120.2773-167.3,1.4573-9.2,2.526-11.9,1.846-4.5-3.4,37.2-24.1915,77.4-61.596,119-11.7557,13-25.6488,26.6-46.0512,45-40.3192,36.3-69.2712,74.2-92.1025,120.8-18.848,38.5-28.272,68.8-34.8785,112-1.6516,11-1.6516,57.6,0,67.5,2.2346,13.2,1.4573,12,7.9667,12,6.7036,0,6.4122,1,4.3719-12.6-12.4357-84.6,26.3289-191.2,97.0574-266.3,4.372-4.5,16.6134-16.2,27.3-26,25.5517-23.2,30.798-28.3,43.7195-42.8,43.1367-48.1,63.3448-88.4,66.4537-132.7l.7773-11.1.1943,11.2c.1943,22-4.9549,43-16.4191,67-16.1277,33.5-37.9874,61-79.181,99.8-31.478,29.6-50.1317,51.8-69.66,83-29.535,46.9-47.9944,96.6-54.8923,147.5-2.9147,21.4-2.04,60,1.7487,78.1l1.0687,4.9H239.32l-.68-4.3c-3.1089-21.2-3.4975-26-3.4975-44.2,0-47,10.0069-88.2,33.5183-137,21.7626-45.2,48.0915-81,84.5244-115,40.9992-38.2,64.122-66.2,81.9013-99,14.8646-27.4,21.7626-52.8,21.86-80.5.0972-11,.2915-13.4.8744-10,1.36,6.9.2915,38.4-1.5544,46.5-4.6635,21.3-14.67,44.5-28.1749,65.4-14.0874,21.7-28.8548,39.3-52.6577,62.6-26.0374,25.6-38.0846,39.1-51.7834,58-40.7077,56-64.802,115.6-71.9914,177.5-2.3318,20.1-.8744,56.6,2.9146,74.7l1.1658,5.3h6.3151c5.6349,0,6.2179-.2,5.7321-1.7-2.3317-6-4.6634-26.7-5.1492-44-1.6516-58.7,15.8362-117.7,52.6578-178,17.6821-28.8,34.004-49,64.8992-79.7,29.8264-29.6,42.4565-44.5,57.71-67.9,15.1561-23.4,25.4544-47.9,30.5065-72.7,2.2345-11,3.1089-35.2,1.6516-47l-.5829-5.5,1.263,5.5a129.2421,129.2421,0,0,1,2.3317,16.8q3.3518,39.45-16.9049,81.7c-12.9215,27-26.0374,44.6-59.2643,79.5-13.4073,14-27.5918,29.5-31.6723,34.5-40.9992,50.2-69.2712,107.8-81.4155,165.5-4.4691,21.3-5.4407,31.5-5.4407,57.5,0,24.7.4858,30.5,4.0805,47.7l1.5545,7.8h6.2179c5.5378,0,6.2179-.2,5.7321-1.8-1.4573-5-4.4691-23.1-5.5378-33.1-1.4573-13.8-.68-42.1,1.5545-57.1,4.7605-32.4,14.5732-63.8,30.1179-96.5,13.5045-28.6,28.4662-48.3,45.6626-60.5,6.4122-4.5,21.18-11.4,29.1463-13.6,9.1326-2.6,34.1013-2.7,42.748-.2,18.1679,5.1,31.1866,13.2,41.7765,26a60.3274,60.3274,0,0,1,12.7272,23.3c7.9667,25-2.1374,59.9-23.22,80.2-19.3338,18.6-45.5655,24-66.648,13.8-9.23-4.6-21.6655-17.1-25.6488-25.8-7.1894-15.9-5.5378-32.3,4.7606-48,5.6349-8.4,11.5614-13.8,20.3053-18.3,17.8764-9.1,36.4329-4.8,44.4,10.3a29.89,29.89,0,0,1-1.4573,30c-6.3151,9.6-20.694,13.7-30.4094,8.5-5.4407-2.9-7.4809-7.4-6.9951-15.8.2914-6.2.1943-6.5-2.1374-7-1.36-.3-3.8862-1-5.635-1.4-2.8175-.8-3.2061-.6-3.789,1.8-1.1659,4.5-.8744,13.4.5829,18.5,1.7488,6.3,7.4809,12.8,13.8931,15.8,4.2748,2,6.7037,2.4,13.8931,2.4,7.7724-.1,9.5211-.5,15.1561-3.2,8.4524-4,13.6988-9.1,17.2935-16.4,8.161-16.9,6.0236-34.5-5.8293-47.4-21.9569-23.9-59.9443-15-81.8041,19.1-24.0943,37.6-36.9187,102.1-31.2837,157.9,1.36,13.4,3.4,26.8,5.4406,34.7l.9716,3.8h11.7557l-.4858-2.8c-.1943-1.5-1.5545-9-3.0118-16.7-6.8008-37.5-4.5662-83,5.9264-121,2.4289-8.8,4.1777-12.7,4.1777-9.2,0,1,1.263,4.6,2.8175,8.2l2.8174,6.4-2.2345,12.8c-6.8008,38.4-5.2463,78.3,4.5663,113.8l2.2345,8,6.1207.3c3.6919.2,6.0236-.1,6.0236-.7a114.8357,114.8357,0,0,0-2.9146-11.3c-8.2581-29.6-10.2984-60.2-6.2179-94.3,2.04-17.1,1.4573-16.4,8.3553-10.8l5.8293,4.8-.583,6.5c-2.9146,32.3-.68,61.6,6.7037,89.7,1.263,5.1,3.0118,10.8,3.789,12.8l1.4573,3.5h6.5094c5.7321,0,6.4122-.2,5.9264-1.8-7.87-25.2-10.3955-36-12.3386-53.8-1.1659-10.3-1.0687-48.7.0971-49.9.3887-.3,3.3033.2,6.6066,1.2l5.8292,1.8.3886,21.5c.583,29.1,3.7891,47.6,12.533,72.2l3.1089,8.8h6.1208c3.4,0,6.1207-.4,6.1207-.9a82.1935,82.1935,0,0,0-2.9146-8.8c-10.007-26.7-15.8362-66.1-13.0188-87.6l.583-4.5,5.7321-.7c3.1089-.4,6.0236-.8,6.4122-.8.2915-.1.5829,5,.3886,11.3-.5829,28.4,5.635,61.3,16.4191,86.7l2.1374,5.3h13.31l-3.6919-8.8c-11.5614-27.4-17.7793-61.4-16.0305-88.5l.68-10.4,5.9264-2.9c3.2061-1.6,6.2179-3,6.6065-3.2.2915-.2.3887,6.9.0972,15.6-1.0687,31.6,4.6634,62.3,16.8077,88.9l4.1777,9.3h6.315c3.4976,0,6.4122-.2,6.4122-.4s-1.9431-4.8-4.3719-10.1c-15.5448-34.4-21.0826-71.8-15.9334-106.9,1.0687-7.2,1.5545-8.5,5.9264-14a142.278,142.278,0,0,0,9.6183-14.6c2.72-4.7,4.6634-7.6,4.372-6.5-5.4407,21-7.0923,30.3-8.4525,47.8-2.2345,31,4.2748,65.5,17.8765,93.7l5.052,10.5,6.9951.3,7.0923.3-5.7321-11.3c-13.4073-26.3-19.4309-51.7-19.5281-81,0-31.1,6.6065-58.3,22.54-93.1,7.2866-15.7,7.7723-18.9,3.4-20.6-5.1492-2-9.8126,4.5-19.3338,26.6-1.6516,4-3.2061,7.2-3.3032,7a59.895,59.895,0,0,1,1.0687-6.7,96.4366,96.4366,0,0,0,1.4573-14.9c0-9.4.4858-10.4,13.6988-30.6,8.2581-12.6,9.23-15,7.1894-18.1-1.9431-3-5.4406-3.1-8.6467-.2a136.2439,136.2439,0,0,0-9.23,12.6l-6.8008,10.3-1.9431-4.7a26.5454,26.5454,0,0,1-2.04-5.6c0-1.1,11.6586-17.1,19.431-26.7,3.4-4.1,7.0922-9,8.3552-10.9,3.8862-5.9,2.72-10.2-2.9146-10.2-3.5947,0-8.9382,5.6-22.637,23.8-5.052,6.7-9.424,12.2-9.6183,12.2a18.932,18.932,0,0,1-3.2061-3.2l-2.8175-3.2,7.5781-9.6c4.1776-5.2,13.1158-15.5,19.82-22.8,14.3789-15.9,17.6821-21.7,13.6016-24-3.9833-2.3-11.0756,2.8-23.3171,16.5-9.6182,10.8-19.82,22.9-23.9,28.2l-2.526,3.5-3.5947-2.8-3.4976-2.8,7.0923-8.1c3.8862-4.5,16.6134-18.2,28.4663-30.3,11.7557-12.2,22.2484-23.8,23.3171-25.8l1.9431-3.6-2.1374-2.2c-4.6635-4.8-5.7321-4-31.4781,22.8-18.7508,19.5-35.4614,38-37.3073,41.2a24.6761,24.6761,0,0,1-4.2748-1.5l-4.0805-1.8,11.95-13.2c6.6065-7.3,14.0874-15.1,16.6134-17.4,5.4407-4.9,20.9854-25.2,31.5752-41.3,8.4525-12.7,15.9334-28.2,18.3622-37.7,1.5545-6.3,1.5545-6.8,0-9.3-3.4-5.3-8.9382-1.9-11.8528,7.5-6.3151,20.1-29.8265,55.6-49.5488,75.1-5.0521,4.9-13.6988,14.2-19.3338,20.7l-10.2983,11.8-3.8862-.7a16.96,16.96,0,0,1-4.5663-1.3c-.2915-.4,8.0638-9.6,18.6537-20.5,25.5516-26.6,38.376-44.3,51.2976-70.8,14.8646-30.6,20.9853-58.3,19.82-90.1-1.5545-44.4-19.3338-88-57.224-140.8-3.2061-4.4-4.372-6.4-2.72-4.5,4.2748,5,18.0708,24.7,25.4545,36.5,12.0472,19.4,21.374,36.9,28.9521,54.8,5.1492,12.1,6.9951,14.7,10.7841,14.7,3.8862,0,5.4407-3.8,3.8862-9.7-1.36-5.6-11.5614-27.9-19.3337-42.3a556.0232,556.0232,0,0,0-31.1866-49.3c-3.7891-5.4-6.7037-9.7-6.4122-9.7,1.7487,0,27.3975,37.8,38.57,56.8,10.0069,17.2,13.4073,20.2,16.9049,14.7,2.1374-3.4,1.1658-7.2-4.6634-17.9-5.635-10.1-20.3053-32.8-30.1179-46.5-3.6919-5.1-6.3151-9-5.7321-8.7,1.263.8,14.8646,19.7,23.9,33,8.1609,12.2,9.5211,13.6,12.9215,13.6s5.052-1.6,5.052-5.1c0-3.3-9.0353-17.6-24.0943-38.2-6.0236-8.1-10.4927-14.6-10.0069-14.2.4858.3,6.4122,7.9,13.1159,16.9,6.8008,9.1,12.8244,16.6,13.5045,16.9,2.4288.8,6.4121-1.5,7.3837-4.3,1.0687-3.3.4858-4.3-10.2984-19-3.4975-4.7-4.4691-6.4-2.2345-3.8,4.4691,5.3,8.1609,6.3,10.9784,3,2.8175-3.2,1.9431-6.3-3.6919-13.6-4.9548-6.3-6.9951-9.7-4.1776-6.8,1.7488,1.8,6.1207,1.4,7.87-.6,2.6232-3,1.9431-5.7-2.9146-11.9-5.7321-7.5-6.9951-9.2-5.1492-7.6,1.7488,1.6,6.0236,1.7,7.578.1,2.6232-2.7,1.2631-7.3-4.76-15.9-7.2866-10.3-14.67-25.8-17.585-36.4-2.9146-10.9-3.1089-36-.3886-48,3.6919-16.6,9.3268-31.1,17.0992-44,8.6467-14.5,8.0638-13,6.4122-16.3a18.1143,18.1143,0,0,0-2.9147-4.1c-1.36-1.2-1.263-1.7.3887-5.2,2.4288-4.8,2.4288-8,.1943-10.9-1.7488-2.2-1.6517-2.4.4857-6.8,2.72-5.6,2.72-6.3.2915-9.5-1.9431-2.5-1.9431-2.8-.4858-5.6,1.846-3.8,1.846-8.5,0-10.1-1.36-1.2-1.36-1.5,0-3.6,2.1374-3.3,1.846-6.9-.8744-10.1l-2.3317-2.8,2.8175-3.3c4.372-5.1,3.3033-11.2-2.04-11.2-2.2346,0-4.5663,1.6-9.91,6.7-4.9549,4.7-3.9833,3.4,3.3033-4.3,5.8292-6.1,10.4927-11.9,10.4927-12.8,0-5-4.1777-7-9.0354-4.5-1.1659.6-6.2179,5.2-11.27,10.3l-9.23,9.1,6.2179-7.3c3.4-4,10.7841-11.7,16.4191-17,13.1158-12.4,16.7106-16.3,21.9569-23.7a99.9424,99.9424,0,0,0,16.1277-40.2c2.3317-14.4.0971-38.4-5.4407-56.7-3.9833-13.2,1.263-22.6,12.4358-22.6,3.8862,0,5.2463.5,7.578,2.9,3.4976,3.7,3.6919,7.9.583,10.9-3.4976,3.4-6.0236,2.8-9.1326-2.1-4.6634-7-10.9784-6.2-10.9784,1.5,0,13,14.476,19.6,25.6488,11.7,13.0187-9.1,10.8813-28.1-3.8862-35.4-4.7606-2.3-14.9618-2.5-19.9167-.3-9.1325,4.1-15.4476,14.2-15.4476,24.9,0,2.7,1.5545,11.1,3.4976,18.7,12.8244,50.8-4.1776,88.6-50.6175,112.5-8.7439,4.5-17.002,7.6-43.2338,16.1-24.0943,7.9-52.5605,23.6-72.963,40.3-27.2033,22.3-46.537,49.1-55.67,77.1-1.846,5.7-3.4976,10.5-3.6919,10.8-.2915.2-.9715-1.5-1.6516-3.8-.68-2.4-3.0118-9.2-5.1492-15.1l-3.9833-10.9,3.2061-6.1c19.8195-38.3,57.3211-70.7,102.7894-89.1,4.9549-2,17.6821-6.1,28.272-9,30.5065-8.6,44.9825-14.8,61.8874-26.4q36.1414-25.05,38.959-65.9c.9715-15.4-1.0687-27.3-13.31-76.3-2.72-10.6-3.1089-13.6-2.6232-20,.68-9.8,2.8175-15.9,7.6752-21.5,6.7037-7.8,13.0187-9.5,20.2082-5.4,4.1776,2.4,5.8292,5.4,5.8292,10.6,0,4.5-6.1207,11.3-10.104,11.3-7.0923,0-12.2415,7.3-7.87,11,3.6918,3.1,17.1963,0,22.637-5.3,6.7036-6.4,9.23-20.4,5.052-28.6-5.7321-11.7-21.7626-16.7-33.7126-10.6-6.3151,3.3-14.2817,12-17.3907,19-3.1089,6.9-5.5378,20.5-4.6634,26.5.2915,2.5,2.526,12.5,4.9549,22.4,4.1776,17.2,5.052,23.6,1.9431,14.2-3.3033-10.1-12.7273-21.2-21.6655-25.6-23.6085-11.8-55.67-.9-67.2309,22.9-11.7557,24.2-5.5378,48.3,15.1561,58.8,7.0923,3.6,7.7724,3.8,17.1964,3.8,7.9666,0,10.59-.4,14.3788-2.2,6.7037-3.2,15.35-12.1,19.2366-19.9,2.72-5.6,3.3033-7.9,3.5947-15.5.3886-8.5.2915-9.3-2.72-15.5-6.0236-12.7-18.0707-18-30.9923-13.7a24.552,24.552,0,0,0-16.6134,28.8c2.3317,10.9,9.5211,17.1,19.0423,16.3,9.424-.8,13.1158-6.2,7.4809-10.8-2.1374-1.7-3.4976-2-6.4122-1.6-3.0118.5-4.08.2-6.0236-1.8-3.2061-3.3-3.4-11-.4858-14.8,2.6232-3.5,9.0354-6,13.31-5.2,13.31,2.6,16.03,21.9,4.8577,35-9.8126,11.5-24.8715,12.4-36.0443,2.3-6.1207-5.6-8.4524-11-8.4524-20-.0972-19.9,13.213-35.3,33.324-38.9a32.06,32.06,0,0,1,29.1463,8.8c8.55,8.2,13.4073,22.1,13.4073,38.3,0,38.2-34.7813,60.8-116.5854,75.4-10.9784,2-23.9,4.7-28.8549,6-31.2837,8.5-64.9963,27.7-89.4793,51l-6.9951,6.7-1.36-3.4c-2.72-6.7-9.1325-26.6-12.5329-38.8-14.2817-51.7-14.1846-92.6.3886-120.8,11.1728-21.8,28.8549-36.4,55.7667-46.1,11.95-4.4,20.5-6.1,30.1179-6.1,10.8813,0,16.8077,1.4,26.426,6.1,27.3,13.4,43.2338,50.4,35.3643,82.1-5.1492,20.8-21.4712,40.2-40.1248,47.9-6.3151,2.6-19.7224,3.6-26.9118,2-16.322-3.6-31.4781-17-36.7244-32.3-2.5261-7.6-2.3318-21.1.3886-30.3,4.08-13.5,14.1845-26,25.4545-31.8,5.5378-2.8,7.2865-3.2,14.1845-3.2,6.6065,0,8.6468.4,13.31,2.8,10.1041,5.1,15.35,14.1,15.35,26.1-.0972,10.9-6.0236,19.7-16.2248,23.6-11.6586,4.5-19.3338.9-23.1228-11.1-1.7488-5.2-3.5947-6.9-7.7723-6.9-3.7891,0-4.9549,3.6-3.4976,10.5,1.5545,7.3,6.315,14.3,12.1443,18,4.4691,2.8,5.5378,3,13.6016,3,7.87,0,9.5212-.3,15.1561-3.1,11.4643-5.6,19.6253-16.4,21.2769-28.2.9715-7.2-.3886-18-3.109-24.2-3.5947-8.4-9.3268-14.4-17.8764-18.7-6.6065-3.4-8.2581-3.8-16.7106-4.1-7.6752-.3-10.3955,0-15.5447,1.8-19.82,6.8-34.8785,25.6-39.5419,49.1-4.08,20.9,1.7488,40.6,16.0305,54.1,20.6939,19.5,48.8687,23.6,71.9915,10.5,19.1394-10.8,34.3927-30.9,40.0277-52.6,2.8174-10.7,2.8174-30.5,0-41.2-4.5663-17.6-11.1728-29.5-23.0257-41.4-12.4357-12.6-26.3288-19.1-45.08-21l-7.2866-.7,7.7723-3.3a145.6287,145.6287,0,0,0,27.5919-14.8c24.4829-16.8,44.4968-44.7,51.4919-71.7,3.1089-11.9,3.2061-28.8.0972-37.8-7.9667-23.7-32.2553-42-57.71-43.9-9.91-.7-17.3907,1.1-28.8549,6.9-9.7155,4.8-20.5,15.2-24.58,23.4-12.8244,26.1-2.526,59.5,22.3455,72.1,6.3151,3.2,8.3553,3.7,15.7391,4.1,6.2179.3,10.104,0,14.2817-1.3a47.3128,47.3128,0,0,0,28.8549-25.3c2.526-5.8,2.9146-7.8,2.9146-15.2.0972-14.9-6.2179-26.6-17.7793-32.9-11.95-6.6-24.4829-5.2-34.1012,3.7-9.5212,8.7-12.0472,19.7-7.0923,30,2.8175,5.8,5.8293,8.5,11.3671,10,4.6634,1.3,8.2581-.1,9.1325-3.6.7773-3.3-.4858-5.2-5.1492-7.7-7.2866-3.9-7.9666-11.4-1.6516-18.6,7.1894-8.2,19.6252-7.5,27.3976,1.6,4.3719,5.1,5.9264,9.8,5.9264,17.4,0,11.8-6.4122,21.2-18.3622,27-4.4691,2.1-6.8008,2.6-13.213,2.6-6.9951,0-8.3553-.3-13.8931-3.4-10.7842-6-17.585-16.3-19.7224-29.9-3.4975-21.8,10.687-41.6,34.1984-47.8,19.5281-5.2,46.6342,8.8,56.35,29.2,3.0118,6.3,3.3033,7.7,3.5947,17.6.2915,8.3-.0971,12.5-1.6516,18.8-2.6232,10.8-9.3268,24.5-17.002,35-7.2866,10-21.0826,23.9-28.9521,29.2-6.0235,4.2-20.4024,11.7-28.1748,14.9l-5.052,2,5.5378-6c7.0923-7.6,9.8126-13.6,9.8126-21.6,0-7.2-2.526-12.9-7.5781-16.9-10.7841-8.4-21.9569-7.2-29.2435,3.3a38.2374,38.2374,0,0,1-3.8861,5.1c-.1943,0,.2914-1.6,1.0687-3.5,2.3317-5.8,2.72-14.3.9715-21.3-4.6634-19-21.18-31.9-38.1817-29.8-15.059,1.8-24.483,12-25.3573,27.6-.4858,9.6.9715,15.1,5.4406,20.2,6.2179,7.1,14.476,9.4,23.9972,6.7,4.6634-1.3,12.1443-8.6,12.1443-11.8,0-2.2-3.9834-7.1-5.8293-7.1-.4858,0-2.72,1.6-4.7606,3.6-9.23,8.5-19.528,3.4-19.528-9.9,0-10.1,6.898-17,16.8077-16.9,9.5212.1,16.322,4.8,20.9854,14.4,6.6065,13.6,2.2345,27.7-11.3671,36.6-2.526,1.7-11.7557,5.6-20.5967,8.7-33.0326,11.6-57.2241,25.9-77.6265,46-48.7716,48-60.333,121.3-32.9354,209.4,7.7724,25.3,9.7155,31.8,12.533,43.6,3.4,14.3,3.4975,16,.68,12-4.9548-7-17.3906-19.1-24.9687-24.3a107.18,107.18,0,0,0-33.7126-14.8c-10.2984-2.5-31.9638-2.6-41.6793-.2-31.0894,7.8-52.852,29.4-60.8187,60.3C9.9383,493.7431,9.0639,521.0431,11.2013,530.4431Zm82.6785,357.3c4.8578-16.6,20.5968-28.5,39.25-29.6,24.483-1.5,42.1651,11.6,57.2241,42.4l3.9833,8.2-5.1492,3.7c-2.72,2.1-8.3553,6.5-12.3386,9.9-11.7557,9.8-10.9785,9.4-8.7439,4.2,5.9264-13.7,1.9431-30.9-9.6183-42-13.31-12.9-31.0895-14.3-42.6509-3.4-6.4122,6.2-8.4524,10.8-8.4524,19.7,0,5.8.4858,8.4,2.1374,11.6,7.1894,14,25.4545,17.8,35.4614,7.4,2.8175-2.9,3.6919-4.6,3.6919-7.2,0-6.6-5.1492-7.9-10.4927-2.6-2.6232,2.7-3.9834,3.3-7.2866,3.2-5.7321-.1-8.3553-1.9-10.59-7.1-2.4289-5.7-1.7488-10.1,2.2345-14.8,9.23-10.7,27.8834-4.2,34.49,12,6.0235,14.9-5.2464,33.3-22.2484,36.3-5.8293,1.1-14.476-.4-20.2082-3.4C98.64,927.9431,88.9249,905.1431,93.88,887.7431Zm33.6155-153.9c.4858,1.9,1.8459,6.6,2.9146,10.5,4.1777,15.1,14.1846,32.9,28.1748,50,9.23,11.3,18.848,20.8,36.7244,36.1,22.7342,19.5,32.644,30.6,44.9826,49.9,16.1276,25.4,25.8431,50.6,30.215,78.5.583,3.5.4858,3.7-8.55,10.8-5.052,4-9.424,7.2-9.6183,7.2s-.68-4.4-.9715-9.8c-2.72-45.5-28.1748-98.7-63.5391-133.2-4.2748-4.1-12.63-12.2-18.7508-18-28.3691-27-42.6508-53.1-42.5537-78C126.5237,731.1431,126.6209,730.7431,127.4953,733.8431Zm11.1728-15.3a17.4381,17.4381,0,0,1,0,4.5c-.1944,1.3-.3887.3-.3887-2.2S138.4737,717.3431,138.6681,718.5431Zm1.7487,12.8c4.2748,19.6,14.5732,36.3,36.3358,58.6,14.1846,14.5,23.9,22.8,47.7029,41.1,15.0589,11.5,28.7577,24.8,37.5016,36.3,13.4074,17.7,25.5517,40.4,32.3525,60.7l3.8862,11.7-7.7724,6.7c-6.2179,5.3-8.0638,6.4-8.7439,5.3a6.6546,6.6546,0,0,1-.8744-2.9c0-2.6-4.7606-20.5-7.3837-28.3-1.36-3.9-5.2464-13.1-8.55-20.2-14.3789-30.9-31.9639-54.1-56.9326-75-29.8264-25.1-45.9541-43-57.224-63.5-6.6065-11.8-11.6585-26.6-11.6585-33.5C139.1538,726.4431,139.64,727.5431,140.4168,731.3431Zm13.99-29.4c4.8577-12.4,17.0992-26.7,27.0089-31.8,4.9549-2.5,6.7037-2.8,14.8647-2.8,8.2581,0,9.8126.3,15.0589,2.9,7.2866,3.7,14.9618,11.7,18.5565,19.3,2.5261,5.2,2.8175,6.8,2.8175,15.8,0,8.9-.2914,10.7-2.8175,16.3-6.1207,13.7-19.3337,20-33.0325,15.8-6.315-2-10.2984-5.4-13.6988-11.7-2.526-4.7-2.9146-6.4-2.9146-13.4,0-6.9.3886-8.6,2.72-12.7,3.4-6.1,7.5781-9,13.4073-9.6a12.5,12.5,0,0,1,12.9216,7.2c1.9431,4.3,1.9431,6.9,0,11.2-1.9431,4.2-5.7321,6.4-10.8813,6.4-4.372,0-6.0236,1.4-6.0236,5.1,0,7.5,11.3671,9.3,19.82,3.2,19.4309-14,9.3269-45.6-14.476-45.5-18.265.1-30.7008,16.2-29.3407,38,.9716,16.1,10.2984,29,24.1915,33.3,13.8931,4.4,28.4663,1.1,38.4732-8.5,7.7724-7.5,13.7959-21.4,13.7959-31.6,0-2.6,1.4574-9.6,3.3033-15.6,17.2935-56.5,20.5967-117.3,9.7154-178.4-4.7605-26.7-9.23-42.2-22.2483-77-7.7724-21-11.95-33.2-16.03-47.6-14.0874-50.2-16.2248-94.4-6.2179-128.3,2.526-8.7,8.55-23.1,9.6183-23.1.2914,0-.2915,1.7-1.36,3.7-2.8175,5.9-6.6065,18.1-9.0354,29.5-3.1089,14.9-3.1089,48.8.0972,69.8,4.3719,29.3,14.7675,65.2,29.4378,102.5,12.4358,31.3,15.739,40.5,19.5281,53.5,19.528,66.5,18.8479,141.9-1.846,206-2.8174,8.6-4.6634,12.5-8.841,18.2-6.5094,8.9-13.1159,22.9-15.35,32.3-2.04,8.7-2.04,25.6,0,36,1.6516,8.2,6.8008,21.5,10.104,26.3a15.4474,15.4474,0,0,1,2.04,3.9c-.0972.9-5.5378,7.3-6.3151,7.3s-26.0374-19.3-34.1012-26.1c-29.8264-25-48.5773-49.1-54.4065-69.7C151.0067,724.9431,151.7839,708.7431,154.4071,701.9431Zm6.4122-420c5.052-24.7,16.03-48.4,29.6321-64.1,3.5947-4.1,3.4976-3.9-1.36,3.5-29.1463,44.4-34.1012,103.7-14.5731,175,1.7488,6.6,6.0236,20.5,9.5211,31,12.8244,38.5,18.4594,67,21.0825,105.5,2.5261,37-1.943,84.6-10.59,114.5l-2.1374,7.1-5.2463,1.1c-7.5781,1.7-14.67,5.4-22.4427,11.9-5.5378,4.6-6.1208,5-3.3033,1.8,17.0992-18.9,26.5232-30.5,29.0492-35.8,6.0236-12.9,7.2866-24.6,3.789-36.2-1.9431-6.5-2.04-7.6-.8744-20.2,1.5545-17.9,1.36-55.4-.3886-73.7-3.0118-30.9-8.161-56.1-18.6536-90.4-9.0354-29.6-13.2131-47.3-15.9334-68.6-.4858-3.9-.68-16.7-.4858-28.5C158.1961,297.3431,158.5847,292.6431,160.8193,281.9431Zm16.4191,2.9c4.1776-23.6,14.7675-49.2,25.163-61.3l2.72-3.2-2.8174,4.5c-8.4525,13.3-16.0305,33.3-19.7224,51.6-2.526,12.9-3.4976,43.5-1.9431,59.5,3.4,34,8.4524,54.1,28.1748,111.6,9.0354,26.5,14.5732,51.6,18.2651,82.3,1.263,10.8,1.6516,21.5,1.5544,42-.0971,33.6-1.5544,47.6-9.0353,82.6l-1.0687,5.1-6.8009-2.5c-4.2747-1.6-6.6065-3-6.315-3.7,1.263-3.4,5.635-23.5,7.3837-34,6.4122-38.6,6.6066-85.3.4858-125.1-3.6918-23.7-8.2581-42.3-17.9736-71.9-10.3955-31.8-15.8361-54.4-18.3622-76-.5829-5-1.263-10.4-1.4573-12C174.5181,327.3431,175.7811,292.9431,177.2384,284.8431Zm17.0992-6.5c1.0687-5.5,2.9146-12.9,3.9833-16.5,2.3317-7.5,12.9216-30.2,14.8647-31.9.68-.6-.583,2.6-2.8175,7.1-9.5212,19-13.99,38.5-14.7675,64.9-1.263,42.4,7.5781,85.2,29.3407,141.9,10.7841,28,16.3219,47.2,20.791,71.2,9.6183,51.8,8.2582,107.4-3.8862,157.4l-2.1374,8.8-2.04-2.9c-1.1659-1.6-3.4976-4.6-5.3435-6.8-3.4-3.8-3.4-3.9-2.2345-9,9.0353-42.2,10.2983-53.4,10.2983-91.2,0-22.8-.3886-33.5-1.6516-44.5-3.6919-30.5-8.9382-54.4-17.7793-80.5-14.0874-41.2-17.0992-51.1-20.6939-66-6.9951-29.4-8.841-44.7-8.3553-71.5C192.2,292.8431,192.686,286.1431,194.3376,278.3431Zm28.272,11.5c.9715-11.4,3.5947-25.1,5.7321-30l1.0687-2.5-.583,2.5c-.2914,1.4-1.1658,5.6-1.943,9.4-7.87,37.3-.68,87.4,21.6654,149.6,5.7321,16,9.23,24.7,19.2366,48.1,9.3268,21.8,14.8646,37.2,18.7508,51.9,8.4525,32.7,11.8529,59.7,11.7557,94.7,0,25.4-1.0687,40.6-4.4691,61.2-1.263,8-2.3317,14.8-2.3317,15.2,0,.5-3.9833,2.8-8.7439,5.3-4.8577,2.5-8.7439,4.2-8.7439,4,0-.3,1.0687-4.4,2.3317-9.2,7.7724-29,11.27-57.3,11.27-91.3,0-51.5-8.6467-95.2-28.2719-143.5-14.4761-35.6-21.2769-55.9-28.0777-82.9C222.901,338.7431,220.375,314.3431,222.61,289.8431Zm13.4073,0c.4857-6,.7772-3.3,1.1658,13,1.4573,48.9,15.2533,95.2,53.7265,179.8,9.424,20.8,15.739,38.6,20.5,58.1,5.5378,22.9,5.9264,25.9,3.9833,34.3a110.7224,110.7224,0,0,0-2.6232,35.6c2.8175,31.2,12.4358,53.9,34.0041,80.1,2.4289,3,3.789,5.2,3.0118,4.8-11.3671-4.9-15.1561-6.1-21.7626-7.4a65.3762,65.3762,0,0,0-15.9333-.9c-5.8293.4-7.9667.2-7.9667-.7,0-.7.68-5,1.4573-9.7,4.7606-27.7,6.1207-72.7,3.0118-101.8a376.7516,376.7516,0,0,0-15.1561-74.6c-3.8862-12.3-6.1207-17.9-19.9167-50.6-22.8313-53.9-34.3927-96.3-37.6959-137.5A134.8925,134.8925,0,0,1,236.0169,289.8431Zm1.7488-13.3a7.7739,7.7739,0,0,1,0,3c-.2915,1-.4858.4-.4858-1.2C237.28,276.6431,237.4742,275.9431,237.7657,276.5431Zm9.6183,480.3c5.4406-24.1,26.9118-47.5,49.84-54.4,10.2984-3.1,24.58-1.6,34.8785,3.8,23.3171,12.2,41.6793,43.2,44.4,75.2,2.72,32.9-13.213,70.5-44.2053,103.8-9.23,9.9-28.4663,27.6-30.0207,27.6-.4858,0-1.0687-1-1.4574-2.3-.4857-1.8.8744-3.6,7.9667-10.4,53.5321-51.1,69.7569-122.4,35.85-157.8-18.5565-19.3-42.5537-20.7-59.75-3.6-7.5781,7.6-12.8244,19.2-12.8244,28.5,0,17.2,13.6016,34,29.4378,36.2,11.95,1.7,28.6606-10.2,26.5232-18.9-1.263-5.3-6.4122-4.5-13.4073,1.9a23.2217,23.2217,0,0,1-6.9951,4.3c-12.2415,3.4-26.5232-14.1-22.9285-28,1.8459-6.8,4.2748-11.1,9.0354-15.7,6.1207-5.7,10.4926-7.5,18.7508-7.5,26.9118-.1,42.0679,35,28.4663,66.1-13.2131,30.2-56.8354,36.8-79.0838,12-6.3151-7-12.3386-19.3-14.476-29.3C245.538,779.1431,245.538,764.9431,247.384,756.8431Zm10.2983,74.2c2.3317,1.2,2.2346,2.7-.3886,5.5-2.3317,2.6-3.6919,2.9-5.4406,1.1S255.4478,829.8431,257.6823,831.0431Zm14.3789,9.4a9.3272,9.3272,0,0,1,2.8175,1c.2914.2-1.6516,2.7-4.2748,5.4-4.4691,4.7-4.8577,4.9-6.5094,3.3-1.6516-1.5-1.5544-1.8,1.9431-5.9C268.9523,840.8431,270.1181,840.0431,272.0612,840.4431Zm8.9382,12.9c6.1208-7.3,7.4809-8.4,10.2012-8.5,1.7488,0,3.2061.4,3.2061,1,0,.5-3.9833,5.2-8.841,10.5-7.0923,7.6-9.1325,9.3-10.2012,8.4a3.5261,3.5261,0,0,1-1.36-2.1C274.0043,862.1431,277.21,857.9431,280.9994,853.3431Zm6.0236-439.3c17.585-17.4,40.7077-32.7,64.4134-42.7,13.99-5.8,24.6773-8.7,46.44-12.5,49.16-8.6,78.1122-18.5,100.8464-34.2,6.6065-4.6,15.1561-13.2,18.7508-18.8a22.8842,22.8842,0,0,1,3.0118-4c1.1658,0-3.8862,7.2-9.424,13.3-19.2366,21.4-48.0915,35.1-97.1545,46.3-8.8411,2-21.0825,5.4-27.2033,7.6-37.3073,13.4-72.5744,38.6-96.863,69.2l-3.109,4-1.6516-4c-4.6634-11.2-6.1207-15-6.2179-15.5C278.862,422.4431,282.5539,418.4431,287.023,414.0431Zm5.4406,452.9c4.8578-5.4,11.0757-12.8,13.796-16.4,3.6919-5,5.8293-6.9,8.3553-7.7,1.9431-.5,3.5947-.8,3.789-.6.8744.9-14.8646,20.9-23.0256,29.4-8.2581,8.5-9.0354,9.1-10.2984,7.5a13.8891,13.8891,0,0,1-1.36-2.1C283.72,876.8431,287.7031,872.2431,292.4636,866.9431Zm11.3671-427.4c8.55-10.3,25.0659-24.9,39.25-34.7,22.4427-15.4,46.5371-25.7,75.1976-32,47.8972-10.6,80.444-26.5,101.4294-49.6,3.789-4.2,6.8979-7.2,6.8979-6.8a59.1061,59.1061,0,0,1-3.789,7.3c-13.5045,23.5-38.8618,38.9-83.2614,51-27.6891,7.5-45.1769,15-66.7452,28.5-29.1463,18.2-53.7264,43.1-68.2024,69l-2.72,4.8-5.052-10.8-5.052-10.9,2.72-3.9C296.0584,449.2431,300.236,443.9431,303.8307,439.5431Zm-5.3435,446.4c13.1159-12.2,29.0492-33.3,36.3358-48.2a60.284,60.284,0,0,1,6.9951-11.3c3.4-3.9,3.4-3.9,2.72-1-1.4574,5.9-9.6183,22.2-16.6135,32.9-7.9666,12.2-19.82,26.5-27.9805,33.7-5.1491,4.6-5.3435,4.6-6.315,2.5a15.0562,15.0562,0,0,1-1.0687-2.6C292.4636,891.7431,295.184,889.0431,298.4872,885.9431Zm11.0756-717c10.2984-3.5,13.0187-5.3,13.0187-9.1a6.1286,6.1286,0,0,0-7.3837-5.7l-2.4289.4,2.1374-2.3,2.1374-2.3,2.8175,2.4c3.4976,3,5.0521,3.1,7.5781.5,2.3317-2.4,2.526-7.1.4857-10.4-3.3032-5.2,2.72-12,8.6468-9.7,3.6919,1.5,7.3837,5.9,7.3837,9-.0971,7.6-9.0353,17.8-21.4711,24.6-7.7724,4.2-19.3338,8.6-20.5968,7.8C299.9445,172.9431,302.3734,171.3431,309.5628,168.9431Zm2.04,752.4c2.526-2,9.3268-7.9,15.0589-13.1,27.2033-25,46.3427-53.1,55.67-81.8,9.1325-28.1,8.161-57-2.9147-83.1-1.4573-3.4-1.4573-3.7-.0971-2.6,2.526,2.1,11.95,23.1,13.7959,30.6,2.6232,10.5,2.4289,31.3-.3886,42.3-6.0236,23.7-20.7911,49.4-43.2338,75.3-13.893,16-40.7077,42.2-41.5821,40.7C306.1624,926.9431,307.134,924.8431,311.6031,921.3431Zm15.6419-344.3c5.7321-21.5,18.5565-34.5,37.7931-38.7,11.7557-2.6,25.4545-1.3,35.6557,3.4,5.4406,2.4,13.1158,9.7,17.4878,16.5,11.5614,18,9.0354,38.3-6.6065,53.4-8.4525,8.1-14.67,10.6-26.3289,10.7-7.9667,0-9.23-.3-13.99-3a32.715,32.715,0,0,1-16.6135-28.8c0-7.8,2.3317-13.1,8.0639-19.1,12.9215-13.3,33.7126-7,33.7126,10.1,0,4.7-.3886,5.9-2.8175,8.4-2.4289,2.4-3.5947,2.9-7.7724,2.9-6.4122,0-9.23,2.5-7.7723,6.8,2.6231,7.9,17.5849,6.7,24.58-1.9,4.6634-5.7,5.8292-8.9,5.8292-16.4-.0971-12-5.5378-21-15.739-26.2-4.7606-2.4-6.7037-2.8-13.7959-2.8-10.007,0-16.7106,2.8-24.2887,10.1-16.9048,16.2-16.1276,43,1.6517,61a40.1666,40.1666,0,0,1,9.3268,13.6l3.4,7.6-4.1776,3c-9.3269,6.7-11.6586,21.7-5.8293,36.7l.7772,2-2.1374-2c-4.3719-3.9-16.2248-21.2-20.6939-30a130.8547,130.8547,0,0,1-10.9784-34C323.9417,608.9431,324.6218,586.6431,327.245,577.0431Zm3.2061-49.2c3.1089-16,10.4927-33.2,20.6939-48.2,16.7106-24.7,45.5654-49.4,67.3281-57.8,23.9971-9.2,50.8118,1,61.5959,23.5,3.109,6.5,3.3033,7.6,3.3033,17,0,8.8-.2915,10.7-2.72,15.9-3.4,7.6-12.8244,17.1-21.6654,21.6-6.1208,3.3-7.1895,3.5-15.8362,3.5-11.6585,0-17.4878-2.4-23.8029-9.6-10.2983-11.8-10.0069-29,.68-38.4,14.7675-13,36.6273-7.8,36.6273,8.7,0,4.3-.4858,5.4-3.7891,9.1-3.4975,3.8-4.2748,4.2-8.3552,4.1-4.8578-.1-9.424-2.8-10.1041-5.9a14.4349,14.4349,0,0,1,.8744-5.5c1.36-4.2.3886-7.2-3.0118-9-3.0118-1.7-5.5378-.3-7.87,4.3-4.1777,8.4-2.04,18,5.3435,23.4,5.7321,4.2,10.687,5.7,16.9049,5,12.5329-1.3,21.9569-12.3,22.054-25.7,0-7.9-2.3317-14-7.6752-19.5-6.1207-6.2-11.0756-8-22.3455-8-8.9382,0-10.2984.3-16.2248,3.2-8.3553,4.1-15.5447,11-18.9451,18.2-3.8862,8.4-3.9834,8.5-7.2866,5.6-1.5545-1.4-3.3033-2.5-3.7891-2.5-5.9264,0-24.58,21.9-36.3357,42.5-5.0521,8.9-9.91,19.5-12.0472,26.7-.8744,2.6-2.6232,4.8-5.9264,7.3a49.8882,49.8882,0,0,0-7.19,6.6,17.0336,17.0336,0,0,1-2.8174,2.9C327.3421,546.8431,328.508,537.6431,330.4511,527.8431Zm33.6154-14a163.822,163.822,0,0,1,24.58-35l4.0805-4.5-3.1089,4.5c-13.8931,20.1-19.9167,31.2-22.8313,41.2-1.4574,5.5-2.8175,6.7-7.0923,6.8C357.8486,526.8431,358.82,523.9431,364.0665,513.8431Zm6.4122,145.4c1.7488-2,3.4-2.8,7.0923-3.1,4.4691-.5,5.1492-.3,6.9951,2.2,2.72,3.5,2.72,5.7.0972,8.1-2.3317,2.2-4.7606,6.6-4.7606,8.8,0,2.4,2.9146,4.6,6.2179,4.6,2.526,0,3.3033.5,4.1776,3.1,1.1659,3,1.0687,3.1-.5829,1.5a5.8511,5.8511,0,0,0-9.8126,4.4c0,3.2,3.4,8.2,9.3268,13.6,3.7891,3.4,4.2748,4.2,3.0118,5.2-2.72,2.4-16.7105-15.6-21.6654-27.6C367.4669,672.1431,367.37,663.0431,370.4787,659.2431Zm5.2464,357.7c3.1089-3.6,16.3219-17.9,29.5349-31.7,13.1159-13.7,27.4948-29.7,31.9639-35.5,34.6841-44.6,51.4919-92.3,47.7028-135-3.789-42.5-21.0825-77-58.487-116.5-6.315-6.7-10.3955-11.8-11.95-15.4-6.8008-15.1-2.4288-29.8,11.1728-37.5,4.3719-2.5,6.315-3,12.0471-3,8.0639,0,12.9216,2.1,16.8078,7.3,8.6467,11.6-5.2464,32.4-16.322,24.5-3.6919-2.6-4.7606-4.5-4.8577-8.2,0-4.3-2.4289-7.1-5.9264-7.1-5.635,0-7.5781,10.1-3.4,17.6,1.263,2.3,6.2178,9.5,10.9784,16,28.6606,39.2,44.7882,71.3,52.2691,103.9,11.6586,51.1-.9715,100.7-38.2788,151-4.0805,5.4-16.8078,19.6-28.3691,31.5-11.4643,11.8-24.1915,25.5-28.1749,30.3-6.6065,8.1-7.7723,9.1-14.7674,12.2-4.0805,1.8-7.4809,3.1-7.4809,2.8A63.4484,63.4484,0,0,1,375.7251,1016.9431Zm3.2061-382.1c.8744,0,4.8577,7,4.8577,8.5s-2.1374-.9-3.8862-4.3C377.6682,634.6431,377.7653,634.8431,378.9312,634.8431Zm2.04-118.9c2.04-4.7,13.1159-23.8,14.3789-24.6.3886-.2-2.9147,7.1-7.3838,16.3-4.5662,9.2-8.6467,16.9-9.23,17.1C377.571,525.1431,378.2511,522.3431,380.9714,515.9431Zm13.31,7.4c.2914.3,0,1.1-.68,1.8-.9715.9-1.0687.8-.4858-.6C393.4072,523.5431,393.99,523.0431,394.2816,523.3431Zm.7772,112c.2915.6,2.1374,4.2,4.2748,7.9,2.1374,3.8,3.6919,7.1,3.4976,7.3-.1943.3-2.4289-3-4.8578-7.3s-4.1776-8-3.789-8.3C394.4759,634.6431,394.8645,634.8431,395.0588,635.3431Zm6.2179,192c.5829-1.3.8744-1.5.8744-.5a7.059,7.059,0,0,1-.8744,3C400.1108,831.6431,400.1108,830.0431,401.2767,827.3431Zm31.3809,156.1c52.0748-50.8,77.335-114.2,69.174-173.5-5.2463-37.5-19.6252-70.6-50.9089-116.6-3.0118-4.3-3.3033-5-1.0687-2.5,10.0069,11.7,30.0207,43.6,39.5418,63.3,12.9216,26.7,18.5566,46.2,20.694,71.8,3.2061,38.8-8.4525,78.7-34.7814,118.4-10.2012,15.4-13.31,19.3-27.3975,33.5-6.8008,6.9-16.7106,17.4-21.957,23.3l-9.6182,10.8-5.8293.6-5.8293.6,7.2866-8.3C415.947,1000.2431,425.2739,990.6431,432.6576,983.4431Zm-26.5232-457.6c1.1659-1.8,1.1659-.2,0,2.5-.5829,1.3-.8744,1.5-.8744.5A7.06,7.06,0,0,1,406.1344,525.8431Zm.7773,104c.9715,0,5.3435,9,4.76,9.7-.4857.4-5.2463-7.5-5.4406-9C406.1344,630.1431,406.523,629.8431,406.9117,629.8431Zm9.91-96c.4858-.8.9716-1.1.9716-.5a6.9218,6.9218,0,0,1-.9716,2.5c-.4857.8-.9715,1-.9715.5A6.3138,6.3138,0,0,1,416.8214,533.8431Zm1.5545,277.3a2.0773,2.0773,0,0,1,.0972,1.9c-.2915.8-.583.5-.583-.6C417.793,811.3431,418.0844,810.7431,418.3759,811.1431Zm.0972-189.3c.9715.1,5.3434,10.1,4.7605,10.8-.4858.4-5.3435-8.7-5.4406-10.1A.674.674,0,0,1,418.4731,621.8431Zm10.6869-84.7c.583.6-1.943,10.7-2.6231,10.7-.3886,0,0-2.5.7772-5.5S428.9657,537.0431,429.16,537.1431Zm-.2914,72.8c1.0687,1.1,8.0638,18.9,7.3837,18.9-.9715,0-7.6752-15.1-7.7723-17.4C428.48,610.3431,428.6743,609.7431,428.8686,609.9431Zm8.841-53.7c1.4574-8.8,8.0639-31.9,8.9383-31.1.1943.3-.4858,3.3-1.6517,6.8-10.0069,31.6-8.3553,63.5,4.7606,91.4,2.6232,5.5,4.6634,10.1,4.4691,10.3-.4858.6-6.7037-10.9-9.91-18.4-5.7322-13.2-6.3151-17.1-7.87-47A87.14,87.14,0,0,1,437.71,556.2431Zm18.1679-152.2c.4858.2.2915,1.2-.4857,2.2-1.0687,1.5-1.9431,1.7-4.6635,1.1l-3.3032-.8,3.789-1.4A18.6067,18.6067,0,0,1,455.8775,404.0431Zm-3.9833,170.3c.8744,14.7,3.789,28.1,8.7439,39.6,3.109,7.4,10.4927,20.7,13.4073,24.3.9716,1.2,1.0687,1.7.2915,1.2-1.8459-1.2-10.2984-14.6-13.4073-21.4-7.19-15.6-9.91-28-9.8126-44.7v-12Zm14.0874-26.8c.7772-3.9,1.6516-7.3,2.04-7.6.2914-.3.2914.6,0,2-2.8175,12.1-3.4005,31.3-1.1659,44,2.526,14.8,8.9382,31,18.0707,45.3,3.109,4.8,3.3033,5.4.9716,2.6-7.2866-8.7-15.8362-26.5-18.9451-39.4A109.1865,109.1865,0,0,1,465.9816,547.5431Zm8.6468-147.3c2.4288-2.9,13.1158-8.5,13.1158-6.9,0,.6-16.6134,22.5-17.0992,22.5a10.5961,10.5961,0,0,1-2.8175-1.6l-2.4288-1.6,3.2061-4.5A77.4388,77.4388,0,0,1,474.6284,400.2431Zm-3.0118,276.6a6.1309,6.1309,0,0,1,1.6516,1.7c1.263,1.6,1.1658,1.7-.3886.4S470.8393,676.8431,471.6166,676.8431Zm7.0922-128.2c.4858-1.6.7773,5.2.7773,15.5,0,16.1.2914,19.2,2.3317,26.7a125.8357,125.8357,0,0,0,14.9618,34.3c3.1089,4.9,5.1492,8.6,4.6634,8.3-1.9431-1.3-10.9785-16.1-14.67-24.1a112.998,112.998,0,0,1-8.7439-29.1C477.0572,573.8431,477.543,553.0431,478.7088,548.6431Zm-.2914,116.2a6.1309,6.1309,0,0,1,1.6516,1.7c1.263,1.6,1.1659,1.7-.3886.4S477.64,664.8431,478.4174,664.8431Zm2.1374-124.7a2.0773,2.0773,0,0,1,.0971,1.9c-.2914.8-.5829.5-.5829-.6C479.9719,540.3431,480.2633,539.7431,480.5548,540.1431Zm.68,128.7a11.9569,11.9569,0,0,1,2.2345,2.2l1.846,2.3-2.2346-1.9C481.0406,669.6431,480.4576,668.8431,481.2349,668.8431Zm4.9548,6a6.1292,6.1292,0,0,1,1.6517,1.7c1.263,1.6,1.1658,1.7-.3886.4S485.4125,674.8431,486.19,674.8431Zm2.9147-17a6.1309,6.1309,0,0,1,1.6516,1.7c1.263,1.6,1.1659,1.7-.3886.4S488.3271,657.8431,489.1044,657.8431Zm3.4975-113.5c.7773-2.7.8744-2.5.3887,1.2-1.1659,8.6-.583,26.9.9715,35.6,2.8175,15.3,8.161,28.3,17.4878,42.6,2.9147,4.6,4.6634,7.7,3.8862,7-2.1374-1.8-11.3671-16.5-14.7675-23.4a128.3239,128.3239,0,0,1-8.9382-29C490.5617,571.2431,491.2418,548.6431,492.6019,544.3431Zm.2915,118.5a11.9559,11.9559,0,0,1,2.2346,2.2l1.8459,2.3-2.2346-1.9C492.6991,663.6431,492.1162,662.8431,492.8934,662.8431Zm5.9264-13a6.1306,6.1306,0,0,1,1.6517,1.7c1.263,1.6,1.1658,1.7-.3887.4S498.0426,649.8431,498.82,649.8431Zm3.7891,5a11.9569,11.9569,0,0,1,2.2345,2.2l1.8459,2.3-2.2345-1.9C502.4145,655.6431,501.8316,654.8431,502.6089,654.8431Zm3.1089-244c1.36-1.3,2.4289-2.1,2.4289-1.8a13.1935,13.1935,0,0,1-2.4289,2.8c-1.36,1.3-2.4289,2.1-2.4289,1.8A13.1935,13.1935,0,0,1,505.7178,410.8431Zm1.7488,250a11.9569,11.9569,0,0,1,2.2345,2.2l1.846,2.3-2.2346-1.9C507.2723,661.6431,506.6893,660.8431,507.4666,660.8431Zm4.9549,6a6.1309,6.1309,0,0,1,1.6516,1.7c1.263,1.6,1.1658,1.7-.3886.4S511.6442,666.8431,512.4215,666.8431Zm15.739-406.7a2.077,2.077,0,0,1,.0971,1.9c-.2914.8-.5829.5-.5829-.6C527.5776,260.3431,527.869,259.7431,528.1605,260.1431Z"/></svg>