<svg id="Ebene_1" data-name="Ebene 1" xmlns="http://www.w3.org/2000/svg" xmlns:xlink="http://www.w3.org/1999/xlink" viewBox="0 0 600 600"><defs><style>.cls-1,.cls-3{fill:none;}.cls-2{fill:#fff;}.cls-2,.cls-3{stroke:#ccc;stroke-miterlimit:10;stroke-width:6px;}.cls-4{fill:url(#Neues_Muster_2);}</style><pattern id="Neues_Muster_2" data-name="Neues Muster 2" width="200" height="160" patternUnits="userSpaceOnUse" viewBox="0 0 200 160"><rect class="cls-1" width="200" height="160"/><line class="cls-2" x1="170.5" y1="90" x2="170.5" y2="230"/><line class="cls-2" x1="184.5" y1="90" x2="184.5" y2="230"/><line class="cls-2" x1="156.5" y1="90" x2="212.5" y2="90"/><path class="cls-3" d="M12.5,90a28,28,0,0,1,28,28"/><line class="cls-2" x1="-43.5" y1="90" x2="12.5" y2="90"/><line class="cls-2" x1="40.5" y1="118" x2="40.5" y2="202"/><line class="cls-2" x1="170.5" y1="-70" x2="170.5" y2="70"/><line class="cls-2" x1="184.5" y1="-70" x2="184.5" y2="70"/><line class="cls-2" x1="156.5" y1="70" x2="212.5" y2="70"/><line class="cls-2" x1="70.5" y1="10" x2="70.5" y2="150"/><line class="cls-2" x1="84.5" y1="10" x2="84.5" y2="150"/><path class="cls-3" d="M112.5,10a28,28,0,0,1,28,28"/><path class="cls-3" d="M140.5,122a28,28,0,0,1-28,28"/><line class="cls-2" x1="56.5" y1="10" x2="112.5" y2="10"/><line class="cls-2" x1="56.5" y1="150" x2="112.5" y2="150"/><line class="cls-2" x1="140.5" y1="38" x2="140.5" y2="122"/><path class="cls-3" d="M40.5,42a28,28,0,0,1-28,28"/><line class="cls-2" x1="-43.5" y1="70" x2="12.5" y2="70"/><line class="cls-2" x1="40.5" y1="-42" x2="40.5" y2="42"/></pattern></defs><title>Zeichenfläche 6</title><rect class="cls-4" width="600" height="600"/></svg>